<svg width="99" height="99" viewBox="0 0 99 99" fill="none" xmlns="http://www.w3.org/2000/svg">
<g filter="url(#filter0_f_301_7)">
<path d="M49.1863 79.1063C65.7108 79.1063 79.1065 65.7106 79.1065 49.1861C79.1065 32.6616 65.7108 19.2659 49.1863 19.2659C32.6618 19.2659 19.2661 32.6616 19.2661 49.1861C19.2661 65.7106 32.6618 79.1063 49.1863 79.1063Z" fill="#60CCFD"/>
</g>
<path d="M44.5621 44.554C44.0833 43.6761 43.4249 43.0078 42.5869 42.5489C41.7489 42.09 40.7714 41.8606 39.654 41.8606C38.4171 41.8606 37.3197 42.14 36.3621 42.6986C35.4044 43.2572 34.6562 44.0553 34.1175 45.0927C33.5788 46.1302 33.3095 47.3272 33.3095 48.684C33.3095 50.0805 33.5788 51.2976 34.1175 52.3351C34.6763 53.3725 35.4443 54.1706 36.4219 54.7292C37.3996 55.2878 38.5368 55.5672 39.8336 55.5672C41.4298 55.5672 42.7365 55.1482 43.7541 54.3103C44.7716 53.4524 45.44 52.2652 45.7592 50.7489H38.5767V47.5467H49.8891V51.1978C49.6099 52.6543 49.0113 54.001 48.0935 55.238C47.1758 56.475 45.9887 57.4725 44.5322 58.2307C43.0957 58.9689 41.4796 59.338 39.684 59.338C37.669 59.338 35.8434 58.8891 34.2073 57.9913C32.5913 57.0736 31.3144 55.8066 30.3766 54.1906C29.4589 52.5745 29 50.7389 29 48.684C29 46.629 29.4589 44.7935 30.3766 43.1774C31.3144 41.5414 32.5913 40.2745 34.2073 39.3766C35.8434 38.4589 37.6589 38 39.654 38C42.0084 38 44.0533 38.5786 45.7891 39.7358C47.5249 40.873 48.722 42.4791 49.3804 44.554H44.5621ZM60.3511 59.4278C58.7549 59.4278 57.3184 59.0787 56.0416 58.3804C54.7646 57.6621 53.7571 56.6546 53.0189 55.3577C52.3007 54.0608 51.9415 52.5645 51.9415 50.8687C51.9415 49.1728 52.3106 47.6765 53.0488 46.3796C53.8069 45.0827 54.8345 44.0852 56.1313 43.3869C57.4281 42.6686 58.8746 42.3095 60.4708 42.3095C62.0668 42.3095 63.5133 42.6686 64.8102 43.3869C66.107 44.0852 67.1245 45.0827 67.8628 46.3796C68.6208 47.6765 69 49.1728 69 50.8687C69 52.5645 68.6109 54.0608 67.8328 55.3577C67.0746 56.6546 66.0372 57.6621 64.7204 58.3804C63.4235 59.0787 61.9671 59.4278 60.3511 59.4278ZM60.3511 55.7767C61.1091 55.7767 61.8175 55.5971 62.4759 55.238C63.1542 54.859 63.6929 54.3003 64.092 53.5621C64.4909 52.8239 64.6905 51.9261 64.6905 50.8687C64.6905 49.2925 64.2715 48.0854 63.4336 47.2475C62.6155 46.3896 61.608 45.9606 60.4109 45.9606C59.2138 45.9606 58.2062 46.3896 57.3883 47.2475C56.5901 48.0854 56.1912 49.2925 56.1912 50.8687C56.1912 52.4448 56.5802 53.6619 57.3584 54.5198C58.1564 55.3577 59.154 55.7767 60.3511 55.7767Z" fill="white"/>
<defs>
<filter id="filter0_f_301_7" x="0.266113" y="0.265869" width="97.8403" height="97.8405" filterUnits="userSpaceOnUse" color-interpolation-filters="sRGB">
<feFlood flood-opacity="0" result="BackgroundImageFix"/>
<feBlend mode="normal" in="SourceGraphic" in2="BackgroundImageFix" result="shape"/>
<feGaussianBlur stdDeviation="9.5" result="effect1_foregroundBlur_301_7"/>
</filter>
</defs>
</svg>
