<svg enable-background="new 0 0 1024 1024" height="1024" image-rendering="optimizeSpeed" viewBox="0 0 1024 1024" width="1024" xmlns="http://www.w3.org/2000/svg"><path d="m969.6 351.25q-8.6-20.85-19.4-40.85c-4.05-7.55-8.35-15.05-12.9-22.4-19.55-31.7-43.4-61.65-71.55-89.8-92.15-92.15-203.45-138.25-333.8-138.25s-241.6 46.1-333.75 138.25-138.25 203.4-138.25 333.75 46.1 241.65 138.25 333.8 203.4 138.2 333.75 138.2 241.65-46.05 333.8-138.2c50.75-50.8 87.55-107.4 110.35-169.75 18.55-50.85 27.85-105.5 27.85-164.05 0-44.9-5.45-87.55-16.4-127.95-1.25-4.55-2.55-9.1-3.9-13.6-4.1-13.3-8.8-26.35-14.05-39.15z" fill-opacity=".098039"/><path d="m969.7 392c-1.1-4.35-2.35-9-3.65-13.6-1-3.4-2-6.85-3.15-10.5-1.6-5.15-3.4-10.5-5.3-15.85-6.45-18.25-14.15-36.05-23.15-53.65-3.8-7.4-7.95-14.95-12.3-22.4-20.3-34.5-45.8-67.2-76.35-97.75-72.6-72.6-157.15-116.65-253.65-132.05-16.25-2.6-32.8-4.4-50.05-5.35-9.7-.55-19.85-.85-30.1-.85-9.35 0-18.6.25-27.9.75-118.35 6.1-220.3 51.95-305.85 137.5q-138.25 138.25-138.25 333.75c0 86.75 20.45 165.05 60.95 234.4l-.025-.025 224.075-45.025 211-2.275 140.525-392.75 299 299 .025.025c4.5-24.15 7.25-49.1 8.15-74.85.2-6.05.3-12.25.3-18.5 0-.65 0-1.35 0-2 0-.35 0-.65 0-1-.2-40.65-4.95-79.5-14.3-117z" fill="#feac2e"/><path d="m922.85 746.8c11.8-20.2 21.9-41.15 30.3-62.8 9.75-25.2 17.2-51.45 22.4-78.65l-.025-.025-299-299-140.525 392.75 165-1.775z" fill="#eeab2f"/><path d="m922.85 746.8-221.85-49.5-165 1.775-211 2.275 275.125 275.125.025.025c2.75-.55 5.2-1 7.6-1.45 7.95-1.55 15.8-3.3 23.4-5.15 80.8-20.3 152.15-61.6 214.65-124.1 30.85-30.85 56.55-63.85 77.05-99z" fill="#212121"/><path d="m325 701.35-224.075 45.025.025.025c20.85 35.6 46.5 68.6 77.3 99.4 56.7 56.65 120.55 95.9 191.1 117.55 36.75 11.25 74.8 17.85 114.75 19.95h.4c8.5.45 16.6.7 24.5.7h3c10.3 0 20.5-.3 30.1-.8 2.5-.15 4.75-.3 6.95-.45 17.6-1.25 34.8-3.4 51.1-6.25l-.025-.025z" fill="#333"/><path d="m922.85 746.8c11.8-20.2 21.9-41.15 30.3-62.8q14.685-37.891 22.375-78.675l-299-299-140.525 392.75 165-1.775z" fill-opacity=".2"/><path d="m708.75 381.6c-2.6-11.55-6-22.75-10.3-33.7-9.85-25.1-24.2-48.25-43-69.4-39.65-44.5-87.55-66.8-143.65-66.8q-84.15 0-143.65 66.8c-18.75 21.1-33.1 44.25-42.95 69.4-4.25 10.85-7.7 22.05-10.3 33.7-4 17.45-6.05 35.8-6.2 55h-4.7c-6.65 0-10 3.75-10 11.25v88.7c0 7.45 3.35 11.2 10 11.2h3.85l17.15 153.6 108.35 45.85c51.65 17.8 103.3 17.8 154.9 0l112.75-49.9 14-149.55h2c6.65 0 11-3.75 11-11.2v-73-15.7c0-7.5-4.35-11.25-11-11.25h-2.05c-.2-19.1-2.25-37.3-6.2-55zm-73.25 88.7c0 11.5-4.95 21.25-14.8 29.35-9.85 8.15-21.75 12.2-35.7 12.2s-25.85-4.05-35.7-12.2c-9.85-8.1-14.8-17.85-14.8-29.35 0-2.2.2-4.35.6-6.75 1.5-8.4 6.25-16.1 14.2-22.65 9.85-8.1 21.75-12.15 35.7-12.15s25.85 4.05 35.7 12.15c7.95 6.55 12.7 14.1 14.2 22.65.4 2.3.6 4.5.6 6.75zm-145.5 0c0 11.5-4.95 21.25-14.8 29.35-9.85 8.15-21.75 12.2-35.7 12.2s-25.85-4.05-35.7-12.2c-9.85-8.1-14.8-17.85-14.8-29.35 0-2.2.2-4.35.6-6.75 1.5-8.4 6.25-16.1 14.2-22.65 9.85-8.1 21.75-12.15 35.7-12.15s25.85 4.05 35.7 12.15c7.95 6.55 12.7 14.1 14.2 22.65.4 2.3.6 4.5.6 6.75zm-54.9 154.95c0-11.55 7.6-21.3 22.7-29.45 15.1-8.05 33.35-12.1 54.7-12.1 21.4 0 39.65 4.05 54.75 12.1 15.1 8.15 22.7 17.9 22.7 29.45 0 11.5-7.6 21.25-22.7 29.35-15.1 8.15-33.35 12.15-54.75 12.15-21.35 0-39.6-4-54.7-12.15-15.1-8.1-22.7-17.85-22.7-29.35z" fill="#fff"/><path d="m635.5 470.3c0-2.25-.2-4.45-.6-6.75-1.5-8.55-6.25-16.1-14.2-22.65-9.85-8.1-21.75-12.15-35.7-12.15s-25.85 4.05-35.7 12.15c-7.95 6.55-12.7 14.25-14.2 22.65-.4 2.4-.6 4.55-.6 6.75 0 11.5 4.95 21.25 14.8 29.35 9.85 8.15 21.75 12.2 35.7 12.2s25.85-4.05 35.7-12.2c9.85-8.1 14.8-17.85 14.8-29.35z"/><path d="m490 470.3c0-2.25-.2-4.45-.6-6.75-1.5-8.55-6.25-16.1-14.2-22.65-9.85-8.1-21.75-12.15-35.7-12.15s-25.85 4.05-35.7 12.15c-7.95 6.55-12.7 14.25-14.2 22.65-.4 2.4-.6 4.55-.6 6.75 0 11.5 4.95 21.25 14.8 29.35 9.85 8.15 21.75 12.2 35.7 12.2s25.85-4.05 35.7-12.2c9.85-8.1 14.8-17.85 14.8-29.35z"/><path d="m435.1 625.25c0 11.5 7.6 21.25 22.7 29.35 15.1 8.15 33.35 12.15 54.7 12.15 21.4 0 39.65-4 54.75-12.15 15.1-8.1 22.7-17.85 22.7-29.35 0-11.55-7.6-21.3-22.7-29.45-15.1-8.05-33.35-12.1-54.75-12.1-21.35 0-39.6 4.05-54.7 12.1-15.1 8.15-22.7 17.9-22.7 29.45z"/></svg>