<svg height="1024" preserveAspectRatio="none" viewBox="0 0 1024 1024" width="1024" xmlns="http://www.w3.org/2000/svg"><path d="m969.6 351.25q-8.6-20.85-19.4-40.85-6.1-11.35-12.9-22.4-29.35-47.55-71.55-89.8-138.25-138.25-333.8-138.25-195.5 0-333.75 138.25-138.25 138.25-138.25 333.75 0 195.55 138.25 333.8 138.25 138.2 333.75 138.2 195.55 0 333.8-138.2 76.15-76.2 110.35-169.75 27.85-76.25 27.85-164.05 0-67.35-16.4-127.95-1.85-6.85-3.9-13.6-6.15-19.95-14.05-39.15z" fill-opacity=".098039"/><path d="m969.7 392q-1.75-6.85-3.65-13.6-1.52421875-5.28554687-3.2-10.55-2.47128906-7.946875-5.25-15.8-9.75-27.55-23.15-53.65-5.8-11.35-12.3-22.4-30.65-52-76.35-97.75-109-109-253.65-132.05-24.5-3.9-50.05-5.35-14.9-.85-30.1-.85-14.1 0-27.9.75-177.55 9.2-305.85 137.5-138.25 138.25-138.25 333.75 0 195.55 138.25 333.8 84.79003906 84.75703125 191.1 117.55 54.53808594 16.81308594 114.75 19.95.2 0 .4 0 12.15.6 24.5.7 1.5 0 3 0 15.25 0 30.1-.8 3.5-.2 6.95-.45 30.05-2.15 58.7-7.7 11.8-2.3 23.4-5.15 120.6-30.05 214.65-124.1 72.9-72.95 107.35-161.8 27.75-71.6 30.55-153.5.3-9.2.3-18.5 0-1 0-2 0-.5 0-1-.35-61.3-14.3-117z" fill="#333"/><path d="m982.55 551.1-271.5-271.5-213.05-76.4-157 68.8-76.1 183.3 10.3 46.7 49.85 49.85-26.55 137.05 289.55 289.55q9.92675781-1.50683594 19.7-3.4 11.8-2.3 23.4-5.15 120.6-30.05 214.65-124.1 72.9-72.95 107.35-161.8 24.22578125-62.50683594 29.4-132.9z" fill-opacity=".2"/><path d="m756.1 491.95q6.8-28.6 6.8-60.15 0-103.95-73.55-177.5-73.5-73.5-177.4-73.5-103.85 0-177.4 73.5-73.5 73.55-73.5 177.5 0 31.55 6.8 60.15 2.3 9.8 10.85 15.1 8.55 5.2 18.35 2.9 9.7-2.3 15-10.85 4.5-7.4 3.5-15.7 35.2-15.7 127.3 72.5 17.4 57.1-46.2 66.95-78.1-2.3-69.25-83.1l-34.6-13.85q-48.25 11.3-4.05 73.85-2.9 5.2-2.9 11.55v55.4q0 10.05 7.15 17.2 7.05 7.05 17.1 7.05 10.05 0 17.2-7.05 7.05-7.15 7.05-17.2v-9.8q21.55-11.2 58.85 12.7v112.5q0 10.05 7.15 17.2 7.05 7.05 17.1 7.05 10.05 0 17.2-7.05 7.05-7.15 7.05-17.2v-73.15q21.45 20.4 46.15 48.25v61.85q0 10.05 7.15 17.2 7.05 7.05 16.95 7.05 9.95 0 17-7.05 7.15-7.15 7.15-17.2v-61.85q24.8-27.85 46.15-48.25v73.15q0 10.05 7.05 17.2 7.15 7.05 17.2 7.05 10.05 0 17.1-7.05 7.15-7.15 7.15-17.2v-112.5q37.25-23.8 58.85-12.7v9.8q0 10.05 7.05 17.2 7.15 7.05 17.2 7.05 10.05 0 17.05-7.05 7.15-7.15 7.15-17.2v-55.4q0-6.35-2.85-11.55 44.2-62.55-4.05-73.85l-34.65 13.85q8.9 80.8-69.25 83.1-63.6-9.85-46.15-66.95 92.1-88.2 127.3-72.5-1.05 8.3 3.45 15.7 5.35 8.55 15.05 10.85 9.8 2.3 18.35-2.9 8.5-5.3 10.85-15.1m-42.15-76.05-28.95 36.1q-57.4 5.1-101.6-16.15l-71.45-203.35-71.45 203.35q-44.2 21.25-101.55 16.15l-28.85-36.1q5.1-73.65 58.75-127.3 59.3-59.35 143.1-59.35 83.8 0 143.15 59.35 53.65 53.65 58.85 127.3m-206.6 174.4q2.3-.95 4.6-.95 2.35 0 4.65.95 4.95 1.95 6.9 6.9l18.5 43.85q2.05 4.85.1 9.7-1.95 4.85-6.95 6.95-4.7 1.95-9.7 0-4.85-1.95-6.9-6.8l-6.6-15.85-6.55 15.85q-2.1 4.85-6.95 6.8-4.95 1.95-9.7 0-4.95-2.1-6.9-6.95-1.95-4.85.1-9.7l18.5-43.85q1.95-4.95 6.9-6.9z" fill="#c4271d"/><path d="m511.95 589.35q-2.3 0-4.6.95-4.95 1.95-6.9 6.9l-18.5 43.85q-2.05 4.85-.1 9.7 1.95 4.85 6.9 6.95 4.75 1.95 9.7 0 4.85-1.95 6.95-6.8l6.55-15.85 6.6 15.85q2.05 4.85 6.9 6.8 5 1.95 9.7 0 5-2.1 6.95-6.95 1.95-4.85-.1-9.7l-18.5-43.85q-1.95-4.95-6.9-6.9-2.3-.95-4.65-.95z" fill="#282828"/></svg>