<svg enable-background="new 0 0 1024 1024" height="1024" image-rendering="optimizeSpeed" viewBox="0 0 1024 1024" width="1024" xmlns="http://www.w3.org/2000/svg"><path d="m969.65 351.3q-8.6-20.85-19.4-40.85c-4.05-7.55-8.35-15.05-12.9-22.4-19.55-31.7-43.4-61.65-71.55-89.8-92.15-92.15-203.45-138.25-333.8-138.25s-241.6 46.1-333.75 138.25-138.25 203.4-138.25 333.75 46.1 241.65 138.25 333.8 203.4 138.2 333.75 138.2 241.65-46.05 333.8-138.2c50.75-50.8 87.55-107.4 110.35-169.75 18.55-50.85 27.85-105.5 27.85-164.05 0-44.9-5.45-87.55-16.4-127.95-1.25-4.55-2.55-9.1-3.9-13.6-4.1-13.3-8.8-26.35-14.05-39.15z" fill-opacity=".098039"/><path d="m932.05 342.2h-120v120h120z" fill="#65a137"/><path d="m812.05 342.2h-120v120h120zm-360 0h-120v120h120z" fill="#3f2b1f"/><path d="m812.05 582.2v-120h-120v120z" fill="#453321"/><path d="m812.05 462.2v120h120v-120z" fill="#60452e"/><path d="m932.05 582.2h-120v120h120z" fill="#2f1f13"/><path d="m692.05 582.2v-120h-120v120z" fill="#90633e"/><path d="m812.05 582.2h-120v120h120z" fill="#523723"/><path d="m692.05 702.2v-120h-120v120z" fill="#614128"/><path d="m812.05 702.2h-120v120h120z" fill="#a2643d"/><path d="m692.05 462.2v-120h-120v120z" fill="#5e9730"/><path d="m692.05 942.2v-120h-120v120z" fill="#704527"/><path d="m692.05 822.2v-120h-120v120z" fill="#51321d"/><path d="m332.05 342.2h120v-120h-120z" fill="#72ad3e"/><path d="m332.05 342.2v-120h-120v120z" fill="#6eab3d"/><path d="m452.05 222.2v120h120v-120z" fill="#453123"/><path d="m572.05 342.2h-120v120h120z" fill="#432d1f"/><path d="m212.05 462.2v120h120v-120z" fill="#67a539"/><path d="m212.05 582.2v120h120v-120z" fill="#74482d"/><path d="m572.05 582.2v-120h-120v120z" fill="#6a4b2e"/><path d="m332.05 462.2v120h120v-120z" fill="#64472e"/><path d="m452.05 582.2h-120v120h120z" fill="#38281a"/><path d="m452.05 702.2h-120v120h120z" fill="#a8713d"/><path d="m572.05 582.2h-120v120h120z" fill="#3f2f1d"/><path d="m572.05 702.2h-120v120h120z" fill="#ac7043"/><path d="m332.05 702.2h-120v120h120z" fill="#4f3420"/><path d="m332.05 462.2v-120h-120v120z" fill="#69a83b"/><path d="m572.05 942.2v-120h-120v120z" fill="#4a2e18"/><path d="m332.05 822.2v120h120v-120z" fill="#472b1b"/><path d="m692.05 222.2v120h120v-120z" fill="#86c14d"/><path d="m692.05 342.2v-120h-120v120z" fill="#79ba45"/><path d="m692.05 222.2v-120h-120v120z" fill="#77b53c"/><path d="m452.05 102.2h-120v120h120z" fill="#8dc34f"/><path d="m572.05 102.2h-120v120h120z" fill="#79b742"/><path d="m845.85 178.3c-10.9-10.9-22.1-21.15-33.8-31v74.9h73.05c-11.85-14.9-25-29.65-39.25-43.9z" fill="#afce69"/><path d="m692.05 74.15v28.05h56.45c-18.15-10.7-36.9-20.05-56.45-28.05z" fill="#6e993d"/><path d="m692.05 102.2v-28.05c-31.55-13-64.9-22.3-99.85-27.9-6.6-1.05-13.3-2-20.15-2.75v58.7z" fill="#85b34c"/><path d="m748.5 102.2h-56.45v120h120v-74.9c-20.1-16.9-41.35-32-63.55-45.1z" fill="#b2d470"/><path d="m932.05 293.75c-2.95-5.6-6.35-11.7-9.85-17.7-10.8-18.4-23.1-36.3-37.1-53.85h-73.05v120h120z" fill="#65a138"/><path d="m932.05 342.2h21.95c-5.55-14.6-12.1-29.25-19.5-43.75-.75-1.45-1.5-2.9-2.45-4.7z" fill="#98bf5d"/><path d="m954 342.2h-21.95v120h49.7c-2.3-23.8-6.3-47.25-12-70.15-1.1-4.35-2.35-9-3.65-13.6-2.5-8.75-5.35-17.6-8.45-26.35-1.15-3.2-2.3-6.4-3.65-9.9z" fill="#3c2b21"/><path d="m932.05 462.2v120h47.35c2.25-16.75 3.75-34 4.35-51.65.2-6.05.3-12.25.3-18.5 0-.65 0-1.35 0-2 0-.35 0-.65 0-1-.1-15.8-.85-31.35-2.3-46.85z" fill="#4d4d4d"/><path d="m945.7 702.2h-13.65v28.2c4.9-9.15 9.45-18.6 13.65-28.2zm-235.75 240h-17.9v7.85c6.15-2.55 12.25-5.2 17.9-7.85zm-377.9 7.8v-7.8h-17.85c5.9 2.75 11.85 5.35 17.85 7.8z" fill="#666"/><path d="m932.05 702.2h13.65c2.65-5.9 5.15-12 7.5-18.15 12.5-32.3 21.2-66.2 26.2-101.85h-47.35z" fill="#433323"/><path d="m932.05 730.4v-28.2h-120v120h56.05c25.55-28.85 46.85-59.4 63.95-91.8z" fill="#9a5f3a"/><path d="m812.05 876.9c11.6-9.8 22.85-20.1 33.8-31.05 7.8-7.8 15.25-15.7 22.25-23.65h-56.05z" fill="#683e24"/><path d="m812.05 876.9v-54.7h-120v120h17.9c36.4-16.95 70.35-38.75 102.1-65.3z" fill="#2b1d12"/><path d="m692.05 950.05v-7.85h-120v38.45c12.65-1.5 24.35-3.35 35.75-5.55 7.95-1.55 15.8-3.3 23.4-5.15 20.9-5.25 41.2-11.9 60.85-19.9z" fill="#764726"/><path d="m553.65 41.7c-3.2-.25-6.4-.5-9.6-.7-.65-.05-1.25-.05-1.9-.1-9.7-.55-19.85-.85-30.1-.85-9.35 0-18.6.25-27.9.75-2.35.1-4.7.25-7.3.4-2.15.15-4.3.3-6.4.5-6.15.5-12.3 1.1-18.4 1.8v58.7h120v-58.7c-6.05-.75-12.2-1.3-18.4-1.8z" fill="#96bc56"/><path d="m452.05 43.5c-42.15 4.8-82.15 15.05-120 30.65v28.05h120z" fill="#b7ce76"/><path d="m332.05 102.2v-28.05c-19.35 7.9-38.15 17.3-56.4 28.05z" fill="#b4c96f"/><path d="m332.05 222.2v-120h-56.4c-22.05 13-43.25 28.05-63.6 45.15v74.85z" fill="#79b646"/><path d="m212.05 147.35c-11.5 9.65-22.75 19.95-33.75 30.95-14.2 14.2-27.25 28.8-39.25 43.9h73z" fill="#8ebd51"/><path d="m139.05 222.2c-18.2 22.85-33.9 46.75-47 71.6v48.4h120v-120z" fill="#639f36"/><path d="m92.05 342.2v-48.4c-8.35 15.8-15.7 32.05-21.95 48.4z" fill="#69a53c"/><path d="m92.05 342.2h-21.95c-14.55 38.15-23.75 78.05-27.7 120h49.65z" fill="#7da745"/><path d="m212.05 342.2h-120v120h120z" fill="#62a039"/><path d="m212.05 582.2v-120h-120-49.65q-2.35 24.45-2.35 49.85c0 24.15 1.6 47.7 4.7 70.15h47.3z" fill="#3f2f23"/><path d="m92.05 582.2h-47.3c5.85 42.65 17.1 82.55 33.7 120h13.6z" fill="#72452c"/><path d="m92.05 702.2v28.15c17.25 32.6 38.7 63.3 64 91.85h56v-120z" fill="#514e4b"/><path d="m92.05 730.35v-28.15h-13.6c4.25 9.75 8.75 19 13.6 28.15z" fill="#4b301c"/><path d="m212.05 582.2h-120v120h120z" fill="#48311e"/><path d="m509.05 984.05h3c10.3 0 20.5-.3 30.1-.8.65-.05 1.25-.1 1.9-.1 1.7-.15 3.4-.25 5.05-.35s3.3-.25 4.55-.35c6.4-.5 12.7-1.15 18.4-1.8v-38.45h-120v38.45c6.15.7 12.25 1.3 18.4 1.8 2.2.15 4.3.3 6.4.45 2.6.2 4.95.35 7.3.45h.4c8.5.45 16.6.7 24.5.7z" fill="#2c1d0f"/><path d="m332.05 942.2v7.8c38 15.6 77.95 25.8 120 30.65v-38.45z" fill="#4e2e1b"/><path d="m332.05 942.2v-120h-120v54.65c32.3 27 66.35 48.8 102.15 65.35z" fill="#5e3921"/><path d="m178.3 845.85c11.05 11.05 22.4 21.45 33.75 31v-54.65h-56c7.3 8.25 14.6 16 22.25 23.65z" fill="#5d3a24"/></svg>