<svg enable-background="new 0 0 1024 1024" height="1024" image-rendering="optimizeSpeed" viewBox="0 0 1024 1024" width="1024" xmlns="http://www.w3.org/2000/svg" xmlns:xlink="http://www.w3.org/1999/xlink"><linearGradient id="a"><stop offset="0" stop-color="#fff"/><stop offset=".20784" stop-color="#ffe800"/><stop offset=".54902" stop-color="#f00"/><stop offset="1"/></linearGradient><linearGradient id="b" gradientUnits="userSpaceOnUse" x1="2349.502" x2="2349.502" xlink:href="#a" y1="1778.714" y2="-595.027"/><linearGradient id="c" gradientUnits="userSpaceOnUse" x1="2185.307" x2="2185.307" xlink:href="#a" y1="1778.714" y2="-595.027"/><linearGradient id="d" gradientUnits="userSpaceOnUse" x1="1784.192" x2="1784.192" y1="1839.651" y2="-924.313"><stop offset="0" stop-color="#fff"/><stop offset=".24706" stop-color="#ffe800"/><stop offset=".52941" stop-color="#f00"/><stop offset="1"/></linearGradient><radialGradient id="e" cx="583.001" cy="3814.6" gradientTransform="matrix(1 0 0 -1 0 5005.45)" gradientUnits="userSpaceOnUse" r="1339.073" xlink:href="#a"/><radialGradient id="f" cx="844.701" cy="3323.1" gradientTransform="matrix(1 0 0 -1 0 4350.15)" gradientUnits="userSpaceOnUse" r="859.835" xlink:href="#a"/><radialGradient id="g" cx="-29.948" cy="4508.926" gradientTransform="matrix(1 0 0 -1 0 5931.25)" gradientUnits="userSpaceOnUse" r="1773.429" xlink:href="#a"/><radialGradient id="h" cx="551.201" cy="3874.65" gradientTransform="matrix(1 0 0 -1 0 5085.55)" gradientUnits="userSpaceOnUse" r="1339.073" xlink:href="#a"/><linearGradient id="i"><stop offset="0" stop-color="#fff"/><stop offset=".23529" stop-color="#ffe800"/><stop offset=".63922" stop-color="#f00"/><stop offset="1"/></linearGradient><radialGradient id="j" cx="583.751" cy="4193.55" gradientTransform="matrix(1 0 0 -1 0 5510.75)" gradientUnits="userSpaceOnUse" r="1339.073" xlink:href="#i"/><radialGradient id="k" cx="1117.201" cy="4762.65" gradientTransform="matrix(1 0 0 -1 0 6269.55)" gradientUnits="userSpaceOnUse" r="1339.073" xlink:href="#i"/><linearGradient id="l"><stop offset="0" stop-color="#fff"/><stop offset=".10588" stop-color="#fffde0"/><stop offset=".55294" stop-color="#fff359"/><stop offset=".85882" stop-color="#ffeb00"/><stop offset="1" stop-color="#ffe800"/></linearGradient><radialGradient id="m" cx="647.251" cy="5174.85" gradientTransform="matrix(1 0 0 -1 0 6819.15)" gradientUnits="userSpaceOnUse" r="1182.7" xlink:href="#l"/><radialGradient id="n" cx="1187.501" cy="5086.35" gradientTransform="matrix(1 0 0 -1 0 6701.15)" gradientUnits="userSpaceOnUse" r="1182.7" xlink:href="#l"/><radialGradient id="o" cx="1270.651" cy="5094.25" gradientTransform="matrix(1 0 0 -1 0 6711.65)" gradientUnits="userSpaceOnUse" r="1182.7" xlink:href="#l"/><radialGradient id="p" cx="933.951" cy="3041.1" gradientTransform="matrix(1 0 0 -1 0 3974.15)" gradientUnits="userSpaceOnUse" r="753.277" xlink:href="#i"/><radialGradient id="q" cx="443.101" cy="3379.2" gradientTransform="matrix(1 0 0 -1 0 4424.95)" gradientUnits="userSpaceOnUse" r="753.277" xlink:href="#i"/><radialGradient id="r" cx="969.951" cy="2671.95" gradientTransform="matrix(1 0 0 -1 0 3481.95)" gradientUnits="userSpaceOnUse" r="753.277" xlink:href="#i"/><radialGradient id="s" cx="1179.101" cy="3331.2" gradientTransform="matrix(1 0 0 -1 0 4360.95)" gradientUnits="userSpaceOnUse" r="753.277" xlink:href="#i"/><radialGradient id="t" cx="1133.701" cy="3433.5" gradientTransform="matrix(1 0 0 -1 0 4497.35)" gradientUnits="userSpaceOnUse" r="988.672" xlink:href="#i"/><linearGradient id="u"><stop offset="0" stop-color="#fff"/><stop offset=".23529" stop-color="#ffe800"/><stop offset=".59608" stop-color="#f00"/><stop offset="1"/></linearGradient><radialGradient id="v" cx="988.251" cy="3602.95" gradientTransform="matrix(1 0 0 -1 0 4723.25)" gradientUnits="userSpaceOnUse" r="1339.073" xlink:href="#u"/><radialGradient id="w" cx="1281.501" cy="3014.7" gradientTransform="matrix(1 0 0 -1 0 3938.95)" gradientUnits="userSpaceOnUse" r="836.925" xlink:href="#u"/><radialGradient id="x" cx="554.301" cy="2871.75" gradientTransform="matrix(1 0 0 -1 0 3748.35)" gradientUnits="userSpaceOnUse" r="836.925" xlink:href="#u"/><radialGradient id="y" cx="987.336" cy="3417.682" gradientTransform="matrix(1 0 0 -1 0 4476.25)" gradientUnits="userSpaceOnUse" r="1004.267"><stop offset="0" stop-color="#fff"/><stop offset=".23529" stop-color="#ffe800"/><stop offset=".61961" stop-color="#f00"/><stop offset="1"/></radialGradient><radialGradient id="z" cx="607.001" cy="3855.85" gradientTransform="matrix(1 0 0 -1 0 5060.45)" gradientUnits="userSpaceOnUse" r="920.585" xlink:href="#i"/><radialGradient id="A" cx="-2020.248" cy="-878.148" gradientTransform="matrix(-1 0 0 1 -2705.399 .25)" gradientUnits="userSpaceOnUse" r="2146.482"><stop offset="0" stop-color="#fff"/><stop offset=".23529" stop-color="#ffe800"/><stop offset=".7098" stop-color="#f00"/><stop offset="1"/></radialGradient><radialGradient id="B" cx="1145.201" cy="3940.95" gradientTransform="matrix(1 0 0 -1 0 5173.95)" gradientUnits="userSpaceOnUse" r="920.585" xlink:href="#i"/><radialGradient id="C" cx="845.601" cy="4046.8" gradientTransform="matrix(1 0 0 -1 0 5315.05)" gradientUnits="userSpaceOnUse" r="920.585" xlink:href="#i"/><radialGradient id="D" cx="483.551" cy="3860.8" gradientTransform="matrix(1 0 0 -1 0 5067.05)" gradientUnits="userSpaceOnUse" r="920.585" xlink:href="#i"/><radialGradient id="E" cx="1379.551" cy="4088.85" gradientTransform="matrix(1 0 0 -1 0 5371.15)" gradientUnits="userSpaceOnUse" r="920.585" xlink:href="#i"/><radialGradient id="F" cx="391.601" cy="4118.85" gradientTransform="matrix(1 0 0 -1 0 5411.15)" gradientUnits="userSpaceOnUse" r="920.585" xlink:href="#i"/><radialGradient id="G" cx="347.601" cy="4004.85" gradientTransform="matrix(1 0 0 -1 0 5259.15)" gradientUnits="userSpaceOnUse" r="920.585" xlink:href="#i"/><radialGradient id="H" cx="-238.649" cy="-687.559" gradientTransform="matrix(-1 -.017 -.017 1 -338.349 -2.799)" gradientUnits="userSpaceOnUse" r="1726.131" xlink:href="#i"/><radialGradient id="I" cx="931.201" cy="4006.95" gradientTransform="matrix(1 0 0 -1 0 5261.95)" gradientUnits="userSpaceOnUse" r="920.585" xlink:href="#i"/><radialGradient id="J" cx="457.201" cy="3754.95" gradientTransform="matrix(1 0 0 -1 0 4925.95)" gradientUnits="userSpaceOnUse" r="920.585" xlink:href="#i"/><radialGradient id="K" cx="1711.001" cy="5896.1" gradientTransform="matrix(1 0 0 -1 0 7780.75)" gradientUnits="userSpaceOnUse" r="2071.333" xlink:href="#i"/><radialGradient id="L" cx="1589.701" cy="6384.75" gradientTransform="matrix(1 0 0 -1 0 8432.25)" gradientUnits="userSpaceOnUse" r="2416.538" xlink:href="#i"/><radialGradient id="M" cx="551.201" cy="3874.65" gradientTransform="matrix(1 0 0 -1 0 5085.55)" gradientUnits="userSpaceOnUse" r="1339.073"><stop offset="0" stop-color="#fff"/><stop offset=".28627" stop-color="#ffe800"/><stop offset=".6" stop-color="#f00"/><stop offset="1"/></radialGradient><radialGradient id="N" cx="1126.868" cy="5711.08" gradientTransform="matrix(1 0 0 -1 0 7534.05)" gradientUnits="userSpaceOnUse" r="1549.973"><stop offset="0" stop-color="#fff"/><stop offset=".11373" stop-color="#fffdd7"/><stop offset=".36078" stop-color="#fff784"/><stop offset=".58431" stop-color="#fff134"/><stop offset=".76863" stop-color="#ffec00"/><stop offset=".91373" stop-color="#ffe900"/><stop offset="1" stop-color="#ffe800"/></radialGradient><linearGradient id="O"><stop offset="0" stop-color="#fff"/><stop offset=".11765" stop-color="#fffffa"/><stop offset=".23922" stop-color="#fffeed"/><stop offset=".36863" stop-color="#fffdd6"/><stop offset=".49804" stop-color="#fffab6"/><stop offset=".63137" stop-color="#fff78b"/><stop offset=".76863" stop-color="#fff351"/><stop offset=".90196" stop-color="#ffed00"/><stop offset="1" stop-color="#ffe800"/></linearGradient><radialGradient id="P" cx="1307.551" cy="4869.25" gradientTransform="matrix(1 0 0 -1 0 6411.65)" gradientUnits="userSpaceOnUse" r="999.001" xlink:href="#O"/><radialGradient id="Q" cx="1367.901" cy="4679.05" gradientTransform="matrix(1 0 0 -1 0 6158.05)" gradientUnits="userSpaceOnUse" r="999.001" xlink:href="#O"/><radialGradient id="R" cx="806.951" cy="4679.05" gradientTransform="matrix(1 0 0 -1 0 6158.05)" gradientUnits="userSpaceOnUse" r="999.001" xlink:href="#O"/><radialGradient id="S" cx="332.801" cy="4476" gradientTransform="matrix(1 0 0 -1 0 5887.35)" gradientUnits="userSpaceOnUse" r="874.11" xlink:href="#O"/><radialGradient id="T" cx="1029.401" cy="5407.05" gradientTransform="matrix(1 0 0 -1 0 7128.75)" gradientUnits="userSpaceOnUse" r="1182.7"><stop offset="0" stop-color="#fff"/><stop offset=".13725" stop-color="#fffffb"/><stop offset=".26667" stop-color="#fffeef"/><stop offset=".38824" stop-color="#fffddc"/><stop offset=".5098" stop-color="#fffbc0"/><stop offset=".62745" stop-color="#fff89a"/><stop offset=".7451" stop-color="#fff56b"/><stop offset=".85882" stop-color="#fff021"/><stop offset=".97255" stop-color="#ffea00"/><stop offset="1" stop-color="#ffe800"/></radialGradient><mask id="U"><path d="m969.75 394c-1.1-4.35-2.35-9-3.65-13.6-2.5-8.75-5.35-17.6-8.45-26.35-6.45-18.25-14.15-36.05-23.15-53.65-3.8-7.4-7.95-14.95-12.3-22.4-20.3-34.5-45.8-67.2-76.35-97.75-38.95-38.95-81.35-69.7-127.5-92.35-39.3-19.3-81.45-32.55-126.15-39.7-16.25-2.6-32.8-4.4-50.05-5.35-9.7-.55-19.85-.85-30.1-.85-9.35 0-18.6.25-27.9.75-6.7.35-13.35.8-20.05 1.45-56.85 5.2-109.8 19.8-158.95 44-45.6 22.4-87.9 53.1-126.85 92.05-89.25 89.25-135.3 196.5-138.1 321.5q-.15 6.1-.15 12.25c0 130.35 46.1 241.65 138.25 333.8 85.25 85.25 186.85 131.05 304.7 137.4.35.05.75.05 1.15.1h.4c8.5.45 16.6.7 24.5.7h3c10.3 0 20.5-.3 30.1-.8 2.5-.15 4.75-.3 6.95-.45 20.2-1.45 39.9-4.05 58.7-7.7 7.95-1.55 15.8-3.3 23.4-5.15 80.8-20.3 152.15-61.6 214.65-124.1 6.1-6.1 12-12.25 17.5-18.3 39.85-43.85 69.75-91.6 89.85-143.5 9.1-23.45 16.15-47.75 21.3-73.05 5.2-25.8 8.3-52.65 9.25-80.45.2-6.05.3-12.25.3-18.5 0-.65 0-1.35 0-2 0-.35 0-.65 0-1 0-3.1-.05-6.2-.1-9.35-.85-37.2-5.55-73-14.2-107.65z" fill="#fff" image-rendering="optimizeSpeed"/></mask><mask id="V"><path d="m2396.223 1367.203v-2340.902h-2341.011v2340.902z" fill="#fff" image-rendering="optimizeSpeed"/></mask><path d="m969.65 351.3q-8.6-20.85-19.4-40.85c-4.05-7.55-8.35-15.05-12.9-22.4-19.55-31.7-43.4-61.65-71.55-89.8-92.15-92.15-203.45-138.25-333.8-138.25s-241.6 46.1-333.75 138.25-138.25 203.4-138.25 333.75 46.1 241.65 138.25 333.8 203.4 138.2 333.75 138.2 241.65-46.05 333.8-138.2c50.75-50.8 87.55-107.4 110.35-169.75 18.55-50.85 27.85-105.5 27.85-164.05 0-44.9-5.45-87.55-16.4-127.95-1.25-4.55-2.55-9.1-3.9-13.6-4.1-13.3-8.8-26.35-14.05-39.15z" fill-opacity=".098039"/><path d="m969.75 394c-1.1-4.35-2.35-9-3.65-13.6-2.5-8.75-5.35-17.6-8.45-26.35-6.45-18.25-14.15-36.05-23.15-53.65-3.8-7.4-7.95-14.95-12.3-22.4-20.3-34.5-45.8-67.2-76.35-97.75-38.95-38.95-81.35-69.7-127.5-92.35-39.3-19.3-81.45-32.55-126.15-39.7-16.25-2.6-32.8-4.4-50.05-5.35-9.7-.55-19.85-.85-30.1-.85-9.35 0-18.6.25-27.9.75-6.7.35-13.35.8-20.05 1.45-56.85 5.2-109.8 19.8-158.95 44-45.6 22.4-87.9 53.1-126.85 92.05-89.25 89.25-135.3 196.5-138.1 321.5q-.15 6.1-.15 12.25c0 130.35 46.1 241.65 138.25 333.8 85.25 85.25 186.85 131.05 304.7 137.4.35.05.75.05 1.15.1h.4c8.5.45 16.6.7 24.5.7h3c10.3 0 20.5-.3 30.1-.8 2.5-.15 4.75-.3 6.95-.45 20.2-1.45 39.9-4.05 58.7-7.7 7.95-1.55 15.8-3.3 23.4-5.15 80.8-20.3 152.15-61.6 214.65-124.1 6.1-6.1 12-12.25 17.5-18.3 39.85-43.85 69.75-91.6 89.85-143.5 9.1-23.45 16.15-47.75 21.3-73.05 5.2-25.8 8.3-52.65 9.25-80.45.2-6.05.3-12.25.3-18.5 0-.65 0-1.35 0-2 0-.35 0-.65 0-1 0-3.1-.05-6.2-.1-9.35-.85-37.2-5.55-73-14.2-107.65z" fill="#172025"/><g mask="url(#U)"><g mask="url(#V)"><path d="m433.725 91.944 19.509-24.71s-135.584 142.411-28.396 301.513c107.296 159.102 24.277 205.489-5.527 205.489-29.696 0-84.32-4.227-63.619-145.229 20.809-141.111-62.211-175.034-62.211-175.034l12.681 7.478-12.681-7.478 4.986 12.247-4.986-12.247s35.983 67.737-6.286 170.807q-32.08 78.467-14.739 150.757 17.666 73.915 79.767 107.946l13.981 7.695-13.981-7.695s78.576 54.299 186.306 3.035c103.395-49.313 83.994-165.063 83.994-165.063l1.409 18.858-1.409-18.858c-20.375 92.231-82.152 99.601-55.815 25.794 83.019-214.484-63.186-335.761-63.186-335.761l6.069 5.635-6.069-5.635c13.873 38.8 49.313 187.714-19.833 91.581-69.147-96.133-30.455-235.835-30.455-235.835l-4.986 23.301" fill="#9d241b"/><path d="m2003.286 205.418 5.853-27.637s-160.403 168.423-33.598 356.571 28.612 242.988-6.503 242.988c-35.223 0-99.818-4.985-75.216-171.782 24.494-166.906-73.698-207.006-73.698-207.006l14.956 8.887-14.956-8.887 5.852 14.414-5.852-14.414s42.593 80.201-7.262 202.129q-38.041 92.773-17.557 178.177 9.971 41.726 33.489 74.023 24.386 33.598 60.91 53.648l16.474 9.104-16.474-9.104s92.773 64.27 220.337 3.577c122.252-58.2 99.168-195.193 99.168-195.193l1.734 22.327-1.734-22.327c-23.952 109.031-97.001 117.701-66.004 30.455 98.192-253.501-74.674-396.888-74.674-396.888l7.262 6.611-7.262-6.611c16.366 45.737 58.309 221.854-23.41 108.164-81.827-113.691-35.982-278.863-35.982-278.863" fill="#9d241b"/><path d="m1017.352-19.037-5.852-27.637s45.845 165.28-35.982 278.971c-81.719 113.69-39.776-62.427-23.411-108.272 0 0-172.866 143.495-74.673 396.996 30.996 87.246-42.052 78.576-66.004-30.563l-1.734 22.326 1.734-22.326s-23.085 136.993 99.168 195.301c127.563 60.693 220.337-3.576 220.337-3.576q36.524-20.051 60.909-53.649 23.519-32.297 33.49-74.023 20.484-85.404-17.449-178.286c-49.964-121.819-7.37-202.02-7.37-202.02l-5.853 14.414 5.853-14.414s-98.193 40.101-73.699 207.006c24.602 166.797-39.992 171.674-75.216 171.674-35.115 0-133.307-54.732-6.502-242.88 126.804-188.148-33.598-356.679-33.598-356.679l6.611 7.587" fill="#c13024"/><path d="m1371.372-437.984s87.679 316.47-68.93 534.314c-156.718 217.735-76.3-119.652-44.869-207.44 0 0-331.102 274.744-143.171 760.395 59.61 167.122-80.418 150.432-126.371-58.525l-.217 1.3c-18.641-72.831-49.963-128.105-95.266-150.54l3.035 5.094-3.035-5.094s75.433 106.646-4.335 378.139c-76.95 261.629-219.903 134.066-147.288-156.068 72.506-290.242-169.29-446.309-169.29-446.309l10.296 7.261-10.296-7.261c79.117 127.563 92.34 197.902-48.338 538.649-28.829 69.688-44.002 132.874-50.18 189.449-2.601-7.479-5.202-14.957-8.237-22.327-66.545-163.003-9.862-270.191-9.862-270.191l-7.804 19.291 7.804-19.291-5.528 2.709 5.528-2.709s-130.923 53.648-98.193 276.694c32.731 223.155-53.539 229.766-100.468 229.766s-177.96-73.265-8.67-324.924c169.181-251.442-44.761-476.764-44.761-476.764l8.887 10.188-8.887-10.188 7.803 36.849-7.803-36.849s61.126 220.879-48.121 372.936c-109.031 152.057-53.106-83.453-31.214-144.687l-9.645 8.887 9.645-8.887s-230.633 191.724-99.601 530.737c41.401 116.726-56.032 105.02-88.113-40.859l-2.276 29.804 2.276-29.804s-30.672 183.271 132.332 261.088c58.417 27.853 111.415 35.873 155.742 34.681h2042.315c44.328 1.192 97.217-6.828 155.634-34.573 163.221-77.817 132.441-260.654 132.441-260.654l2.276 29.804-2.276-29.804q-11.163 50.938-33.164 84.211-19.075 29.046-38.475 34.465-18.859 5.311-24.711-14.631-6.395-22.002 8.237-63.186c131.031-338.471-99.71-529.87-99.71-529.87l9.646 8.887-9.646-8.887c21.893 61.126 77.925 296.202-31.213 144.47-109.248-151.732-48.121-372.285-48.121-372.285l-7.804 36.849 7.804-36.849s-213.943 224.888-44.653 476.005c169.182 251.117 38.15 324.165-8.779 324.165-46.928 0-133.199-6.503-100.468-229.224 32.839-222.613-98.192-276.152-98.192-276.152l5.527 2.709-5.527-2.709 3.034 6.502-3.034-6.502s18.749 35.765 22.001 97.216c-2.385 58.851-23.519 159.644-112.282 301.189-144.904 230.958-247.974 69.472-99.493-190.207 148.372-259.679-42.16-475.356-42.16-475.356l7.912 9.755-7.912-9.755c24.169 83.453 32.081 142.52-9.754 233.885 3.251-80.093-11.813-165.497-46.062-248.949-95.591-233.451-14.089-387.026-14.089-387.026l-11.272 27.637 11.272-27.637s-188.04 76.733-141.003 396.346-76.733 329.042-144.145 329.042c-67.304 0-255.344-105.02-12.464-465.275 242.772-360.364-64.269-683.12-64.269-683.12z" fill="#c13024"/><path d="m474.093 681.907c47.253 76.192 55.165 118.243-28.938 321.889-17.124 41.618-26.228 79.335-29.913 113.149-1.517-4.443-3.143-8.887-4.985-13.33-39.667-97.326-5.853-161.378-5.853-161.378l-4.66 11.488 4.66-11.488-11.922 7.044 11.922-7.044s-78.25 32.08-58.633 165.279c19.508 133.308-31.973 137.318-60.043 137.318s-106.321-43.786-5.202-194.109c101.118-150.323-26.77-284.931-26.77-284.931l18.425 23.41-18.425-23.41 4.66 22.001-4.66-22.001s36.524 132.007-28.721 222.829c-65.136 90.823-31.755-49.855-18.641-86.487l-5.744 5.31 5.744-5.31s-137.86 114.558-59.609 317.228c24.819 69.689-33.49 62.644-52.565-24.493l-1.3 17.882 1.3-17.882s-18.424 109.464 79.118 156.067c34.898 16.474 66.545 21.351 92.99 20.592h1220.36c26.445.759 58.092-4.118 92.99-20.592 97.434-46.495 79.118-155.742 79.118-155.742l1.3 17.774-1.3-17.774q-6.72 30.455-19.834 50.288-11.38 17.341-22.976 20.592-11.272 3.252-14.74-8.67-3.902-13.222 4.877-37.825c78.251-202.237-59.501-316.578-59.501-316.578l5.745 5.311-5.745-5.311c13.006 36.524 46.496 176.985-18.749 86.379-65.245-90.714-28.721-222.505-28.721-222.505l-4.66 22.002 4.66-22.002-18.425 23.302 18.425-23.302s-127.78 134.392-26.662 284.39c101.011 150.106 22.76 193.784-5.202 193.784-28.07 0-79.659-3.902-60.042-136.993 19.508-133.091-58.742-165.063-58.742-165.063l11.921 7.045-11.921-7.045 5.852 15.282-5.852-15.282s11.271 21.459 13.114 58.092c-1.409 35.223-13.981 95.483-67.088 180.019-86.595 137.968-148.047 41.51-59.392-113.69 88.655-155.092-25.144-284.065-25.144-284.065l16.365 22.543-16.365-22.543c14.414 49.963 19.075 85.295-5.853 139.811 1.951-47.796-7.153-98.843-27.528-148.806-57.117-139.486-8.454-231.175-8.454-231.175l-6.72 16.474 6.72-16.474-17.124 10.188 17.124-10.188s-112.282 45.845-84.211 236.81c28.07 190.966-45.845 196.602-86.163 196.602-40.209 0-152.599-62.752-7.478-277.995 145.121-215.351-38.366-408.16-38.366-408.16l7.586 8.671-7.586-8.671 6.719 31.539-6.719-31.539s52.456 189.124-41.185 319.18c-93.64 130.164-45.519-71.423-26.878-123.879l-8.237 7.587 8.237-7.587s-197.794 164.088-85.404 454.33c35.549 99.818-48.12 89.847-75.541-34.898l-.108.758c-11.163-43.569-29.913-76.625-56.899-89.955l6.286 12.463-6.286-12.463s44.977 63.727-2.71 225.864c-45.953 156.284-131.357 80.201-88.005-93.207s-101.118-266.724-101.118-266.724z" fill="#ef5331"/><path d="m1634.194 471.433s-152.816 160.62-31.973 339.88c120.736 179.261 27.204 231.392-6.286 231.392-33.489 0-95.049-4.66-71.639-163.654 23.302-158.994-70.122-197.144-70.122-197.144l14.198 8.454-14.198-8.454 5.636 13.765-5.636-13.765s40.534 76.408-7.045 192.484c-17.015 41.509-24.602 83.994-22.976 123.878-20.701-45.411-16.799-74.782-4.769-116.4l-13.656 18.75 13.656-18.75s-94.832 107.296-21.026 236.485c73.916 129.189 22.652 209.499-49.421 94.616-44.219-70.339-54.732-120.519-55.924-149.781 1.626-30.563 10.946-48.338 10.946-48.338l-4.877 12.681 4.877-12.681-9.971 5.853 9.971-5.853s-65.136 26.553-48.879 137.318c16.365 110.873-26.553 114.124-49.963 114.124-23.302 0-88.439-36.416-4.336-161.378 84.212-124.854-22.217-236.702-22.217-236.702l15.281 19.4-15.281-19.4 3.901 18.316-3.901-18.316s30.346 109.681-23.952 185.113c-54.299 75.541-26.445-41.401-15.499-71.856l-16.907 17.558 16.907-17.558s-114.774 95.266-49.638 263.581q7.262 20.483 4.118 31.43-2.926 9.971-12.355 7.37-9.646-2.818-19.075-17.233-10.946-16.582-16.474-41.835l-1.083 14.849 1.083-14.849s-15.281 90.931 65.896 129.623c29.045 13.656 55.382 17.774 77.383 17.124h1015.955c22.11.65 48.446-3.36 77.492-17.124 81.177-38.8 65.895-129.839 65.895-129.839l1.084 14.848-1.084-14.848c-15.932 72.506-64.486 78.25-43.785 20.267 65.136-168.64-49.638-264.014-49.638-264.014l16.907 17.557-16.907-17.557c10.838 30.455 38.691 147.614-15.607 71.964-54.299-75.649-23.844-185.547-23.844-185.547l-3.901 18.317 3.901-18.317s-106.429 112.066-22.218 237.245c84.103 125.07 18.967 161.594-4.443 161.594-23.302 0-66.221-3.251-49.855-114.341 16.257-110.873-48.988-137.642-48.988-137.642l9.971 5.96-9.971-5.96 3.902 9.645-3.902-9.645s28.287 53.323-4.877 134.391l-4.01 11.163c-3.143-28.179-10.621-59.609-25.036-94.291-69.905-169.506-63.402-204.513-24.06-267.915 0 0-120.302 77.6-84.103 221.962 35.982 144.362-35.007 207.873-73.374 77.709-39.667-135.042-2.167-188.148-2.167-188.148l-5.203 10.404 5.203-10.404c-22.543 11.163-38.042 38.692-47.362 74.89l-.109-.65c-22.868 103.937-92.448 112.282-62.86 29.154 93.532-241.579-71.206-378.246-71.206-378.246l6.936 6.394-6.936-6.394c15.607 43.677 55.599 211.449-22.326 103.069-77.926-108.271-34.248-265.748-34.248-265.748z" fill="#9d241b"/><path d="m130.842-1068.213 11.597-5.745s-75.758 27.312-62.969 122.47c0 0-11.488-9.863-26.662-7.478l11.163 9.862-11.163-9.862s75.541 52.022 34.899 166.038q17.341-11.38 32.731-33.489 30.671-44.111 20.592-97.651c-15.824-84.645 22.976-87.788 22.976-87.788l-5.852 1.843 5.852-1.843s-28.287-9.537-39.558 23.085c0 0-4.336-52.456 17.991-85.187m-239.846 78.901c107.297-179.044-28.395-339.338-28.395-339.338l5.636 7.261-5.636-7.261 4.985 26.228-4.985-26.228s38.8 157.151-30.455 265.423c-69.146 108.163-33.598-59.392-19.834-103.07l-6.177 6.286 6.177-6.286s-146.313 136.559-63.185 377.814c26.336 83.127-35.549 74.782-55.816-29.046l-1.409 21.242 1.409-21.242s-19.508 130.381 83.995 185.872c107.838 57.766 186.414-3.469 186.414-3.469 84.103-51.697 107.296-175.142 65.028-291.109-42.16-115.966-6.178-192.266-6.178-192.266l-4.986 13.764 4.986-13.764-12.681 8.454 12.681-8.454s-83.128 38.15-62.319 196.927-33.923 163.545-63.727 163.545c-29.696 0-112.824-52.239-5.528-231.283z" fill="#ef5331"/><path d="m287.569-1209.965 3.143-7.045c-65.461 46.278-65.461 90.931-45.519 141.219 19.942 50.289-15.932 103.72-15.932 103.72 90.931-62.969 95.699-111.632 66.979-157.91q-17.991-28.937-13.548-60.91 1.409-9.97 4.877-19.074zm-686.371 55.599 4.227-7.262c-72.073 49.855-75.866 88.33-53.106 124.962 22.759 36.741 4.443 68.93 4.443 68.93 51.806-36.632 51.806-72.073 35.982-111.848-15.715-39.776 12.681-82.044 12.681-82.044zm149.348-196.819-5.419-11.813s39.125 69.146-5.853 136.125c-44.652 66.654-28.72 130.382 38.367 193.134 0 0-21.351-79.768 20.7-123.987 42.052-44.111 49.422-80.31 39.884-115.425l-5.094 25.253 5.094-25.253s-7.478 56.466-18.641 32.514 13.331-69.688-74.457-122.361z" fill="#f38b34"/><path d="m4.914-1316.72-18.425-23.41 4.661 22.11-4.661-22.11s36.633 132.224-28.829 223.263c-65.461 90.931-31.864-49.963-18.75-86.704l-5.744 5.311 5.744-5.311s-138.401 114.883-59.825 317.771c24.819 69.905-33.598 62.86-52.781-24.386l-.109.542c-7.803-30.563-20.917-53.54-39.884-62.969l4.444 8.779-4.444-8.779s31.539 44.544-1.842 158.018c-32.081 109.356-91.798 56.033-61.56-65.245 30.346-121.277-70.664-186.522-70.664-186.522l15.282 12.139-15.282-12.139c33.056 53.323 38.583 82.694-20.267 225.106-12.03 29.154-18.316 55.599-20.917 79.226-1.084-3.143-2.168-6.286-3.469-9.321-27.853-68.063-4.118-112.932-4.118-112.932l-3.251 8.128 3.251-8.128-8.345 4.985 8.345-4.985s-54.732 22.435-41.076 115.641c13.764 93.316-22.326 96.025-41.943 96.025s-74.349-30.671-3.577-135.8c70.664-105.129-18.75-199.311-18.75-199.311l12.898 16.365-12.898-16.365 3.252 15.39-3.252-15.39s25.578 92.34-20.05 155.959c-45.519 63.511-22.218-34.898-13.114-60.476l-14.198 14.739 14.198-14.739s-96.35 80.093-41.509 221.746c17.232 48.771-23.411 43.893-36.85-17.016l-.975 12.464.975-12.464s-12.897 76.516 55.274 109.03c24.386 11.705 46.495 15.065 65.028 14.523h853.494c18.533.542 40.642-2.818 65.028-14.414 68.279-32.514 55.382-108.922 55.382-108.922l.976 12.463-.976-12.463c-13.331 60.801-54.082 65.678-36.741 17.015 54.732-141.436-41.726-221.42-41.726-221.42l14.198 14.739-14.198-14.739c9.104 25.577 32.514 123.77-13.114 60.367-45.52-63.402-20.05-155.525-20.05-155.525l-3.252 15.39 3.252-15.39-12.898 16.365 12.898-16.365s-89.414 93.966-18.642 198.877c70.664 104.912 15.932 135.476-3.685 135.476s-55.707-2.71-41.943-95.808c13.656-92.991-41.076-115.425-41.076-115.425l8.345 4.985-8.345-4.985 4.119 10.729-4.119-10.729s7.803 14.956 9.212 40.642c-1.083 24.603-9.862 66.762-46.928 125.938-60.585 96.458-103.612 29.046-41.618-79.551 61.993-108.488-17.558-198.661-17.558-198.661l11.489 15.824-11.489-15.824c10.08 34.899 13.331 59.609-4.118 97.759 1.409-33.489-4.986-69.146-19.292-104.045-39.884-97.542-5.852-161.703-5.852-161.703l-4.661 11.597 4.661-11.597-11.922 7.153 11.922-7.153s-78.576 32.081-58.959 165.605c19.725 133.633-32.081 137.534-60.151 137.534-28.179 0-106.755-43.894-5.311-194.434 101.552-150.648-26.77-285.473-26.77-285.473" fill="#e88f48"/><path d="m2374.105 779.341s-54.949 19.942-45.628 88.98c0 0-8.346-7.261-19.4-5.527l8.128 7.153-8.128-7.153s54.84 37.825 25.361 120.519l7.695-6.07q9.103-8.128 16.04-18.208 22.218-31.972 14.956-70.88c-11.488-61.452 16.691-63.728 16.691-63.728s-20.484-6.936-28.721 16.799c0 0-3.143-38.041 13.006-61.885z" fill="url(#b)"/><path d="m2183.139 609.51-3.577-19.075s28.071 114.016-22.109 192.591c-50.289 78.467-24.494-43.135-14.415-74.782 0 0-106.104 99.059-45.845 274.202 19.075 60.259-25.794 54.19-40.534-21.135l-1.083 15.39 1.083-15.39s-14.197 94.616 60.91 134.825c78.359 41.943 135.258-2.384 135.258-2.384q45.195-27.854 58.092-88.222 12.572-58.958-10.838-123.119c-30.672-84.103-4.552-139.486-4.552-139.486l-3.576 9.971 3.576-9.971s-60.259 27.637-45.194 142.954c15.064 115.208-24.603 118.568-46.17 118.568-21.568 0-81.936-37.825-4.01-167.773 77.817-129.948-20.593-246.239-20.593-246.239l14.198 20.158" fill="url(#c)"/><path d="m1298.974 862.577c-62.535-86.921-27.529-213.292-27.529-213.292l-4.443 21.134 4.443-21.134-17.666 22.435 17.666-22.435s-122.578 128.864-25.686 272.684c97 143.821 21.893 185.764-4.985 185.764-26.879 0-76.3-3.793-57.55-131.357 18.75-127.563-56.249-158.235-56.249-158.235l11.379 6.828-11.379-6.828 4.443 11.055-4.443-11.055s32.514 61.343-5.636 154.442c-13.656 33.381-19.725 67.521-18.425 99.385-16.69-36.416-13.439-59.935-3.901-93.316l-10.947 15.065 10.947-15.065s-75.975 86.054-16.799 189.774c59.284 103.72 18.207 168.206-39.668 75.974-35.44-56.574-43.893-96.783-44.869-120.302 1.301-24.494 8.779-38.8 8.779-38.8l-3.902 10.188 3.902-10.188-7.912 4.769 7.912-4.769s-52.239 21.351-39.234 110.331c13.114 88.872-21.351 91.473-40.1 91.473-18.75 0-70.989-29.154-3.469-129.406 67.63-100.251-17.882-190.099-17.882-190.099l12.355 15.607-12.355-15.607 3.143 14.74-3.143-14.74s24.494 88.113-19.184 148.698c-43.568 60.476-21.134-33.273-12.463-57.767l-13.548 14.09 13.548-14.09s-92.123 76.408-39.776 211.558q5.853 16.474 3.36 25.253-2.384 8.02-9.863 5.852-7.803-2.167-15.39-13.764-8.778-13.331-13.222-33.598l-.867 11.922.867-11.922s-12.355 72.94 52.781 104.045c23.302 10.947 44.436 14.198 62.21 13.656h815.344c17.666.542 38.8-2.709 62.102-13.764 65.136-30.997 52.889-104.153 52.889-104.153l.867 11.921-.867-11.921c-12.788 58.2-51.697 62.86-35.115 16.257 52.239-135.367-39.884-211.884-39.884-211.884l13.548 14.09-13.548-14.09c8.779 24.494 31.105 118.46-12.463 57.767-43.569-60.693-19.184-148.914-19.184-148.914l-3.143 14.739 3.143-14.739-12.247 15.607 12.247-15.607s-85.403 89.955-17.882 190.424c67.52 100.36 15.281 129.622-3.469 129.622-18.749 0-53.106-2.601-40.1-91.689 13.114-88.98-39.234-110.44-39.234-110.44l8.02 4.769-8.02-4.769 3.143 7.695-3.143-7.695s22.652 42.811-3.901 107.839l-3.252 8.887c-2.493-22.543-8.562-47.796-20.05-75.541-56.141-136.126-50.939-164.196-19.292-215.135l-14.631 11.597 14.631-11.597s-96.567 62.319-67.629 178.177c29.046 115.859-28.071 166.797-58.742 62.319-31.864-108.38-1.734-150.974-1.734-150.974l-4.227 8.346 4.227-8.346c-18.1 8.996-30.563 30.997-38.042 60.151l-.108-.542c-18.316 83.453-74.24 90.064-50.397 23.41 74.999-193.892-57.224-303.572-57.224-303.572l5.527 5.094-5.527-5.094c12.572 35.006 44.652 169.723-17.883 82.802z" fill="#e88f48"/><path d="m1793.512 732.413-2.167-26.12s20.375 157.368-46.929 256.644-23.843-61.235-8.67-102.527c0 0-97.868 86.92-95.158 263.472-.65 9.212-.325 18.966 1.409 29.045 1.626 22.327 4.877 45.954 10.079 70.773 10.513 55.815-8.995 68.171-25.903 39.558-.433-9.212.109-20.483 1.843-34.356 9.104-72.181-27.312-89.414-27.312-89.414l5.527 3.794-5.527-3.794 2.818 8.237-2.818-8.237s5.311 11.597 6.178 31.431c-.651 19.074-6.503 51.697-31.214 97.542-40.209 74.782-68.821 22.434-27.637-61.56 41.185-84.103-11.705-154.008-11.705-154.008l7.587 12.247-7.587-12.247c6.72 27.095 8.887 46.278-2.709 75.757.975-25.903-3.252-53.539-12.789-80.634-26.553-75.541-3.902-125.18-3.902-125.18l-3.143 8.888 3.143-8.888-7.911 5.528 7.911-5.528s-52.239 24.82-39.125 128.323c13.006 103.394-21.351 106.429-40.101 106.429-18.641 0-70.88-33.923-3.468-150.649 67.413-116.617-17.882-221.095-17.882-221.095l12.246 18.099-12.246-18.099 3.143 17.124-3.143-17.124s24.385 102.419-19.075 172.975c-43.569 70.447-21.135-38.692-12.464-67.088l-13.548 16.366 13.548-16.366s-92.015 88.872-39.776 246.132c16.583 54.081-22.326 48.662-35.115-18.967v.434c-5.202-23.627-13.872-41.51-26.445-48.771l2.927 6.828-2.927-6.828s20.918 34.573-1.3 122.469c-21.351 84.645-61.018 43.352-40.859-50.505 20.158-93.966-47.037-144.579-47.037-144.579l10.187 9.429-10.187-9.429c22.001 41.293 25.686 64.053-13.439 174.384-8.021 22.651-12.139 43.026-13.873 61.343l-2.276-7.262c-18.533-52.673-2.818-87.354-2.818-87.354l-2.168 6.286 2.168-6.286-5.527 3.793 5.527-3.793s-36.307 17.341-27.203 89.522c9.103 72.289-14.849 74.349-27.963 74.349-13.005 0-49.421-23.736-2.384-105.129 46.929-81.394-12.464-154.333-12.464-154.333l8.562 12.68-8.562-12.68 2.168 11.921-2.168-11.921s17.016 71.53-13.33 120.735c-30.347 49.205-14.74-27.095-8.671-46.929l-9.429 11.38 9.429-11.38s-64.052 62.102-27.745 171.891c11.597 37.717-15.498 34.032-24.386-13.222l-.65 9.646.65-9.646s-8.562 59.284 36.741 84.536c16.257 8.888 30.997 11.489 43.244 11.055h504.076v-.433h276.586v.433h582.76c13.764.542 30.238-2.493 48.337-12.464 50.722-28.178 41.185-94.507 41.185-94.507l.65 10.838-.65-10.838c-9.971 52.781-40.209 57.008-27.312 14.74 40.643-122.687-30.997-192.158-30.997-192.158l10.513 12.789-10.513-12.789c6.72 22.218 24.169 107.404-9.754 52.456-33.923-55.057-14.956-135.042-14.956-135.042l-2.385 13.331 2.385-13.331s-66.437 81.502-13.873 172.65c52.564 91.039 11.922 117.592-2.709 117.592-14.523 0-41.402-2.384-31.214-83.128 10.188-80.851-30.455-100.251-30.455-100.251l6.178 4.335-6.178-4.335 2.385 6.936-2.385-6.936s17.558 38.8-3.034 97.867c-.976 2.601-1.734 5.311-2.601 8.02-1.951-20.484-6.612-43.352-15.607-68.604-43.677-123.337-39.559-148.806-14.957-194.976 0 0-75.215 56.466-52.672 161.595 22.543 105.02-21.785 151.19-45.737 56.466-24.819-98.301-1.3-136.884-1.3-136.884l-3.252 7.586 3.252-7.586c-14.09 8.128-23.844 28.07-29.697 54.515v-.434c-14.306 75.541-57.766 81.61-39.233 21.134 58.308-175.901-44.544-275.285-44.544-275.285l15.173 18.316-15.173-18.316c9.754 31.755 34.79 153.9-13.873 74.999-48.663-78.793-21.459-193.459-21.459-193.459l-3.468 19.184 3.468-19.184s-95.375 116.942-19.942 247.432c75.432 130.381 17.015 168.423-3.902 168.423s-59.392-3.36-44.761-119.11-43.785-143.495-43.785-143.495l8.887 6.177-8.887-6.177 3.468 9.971-3.468-9.971s25.252 55.49-4.444 140.027c-10.621 30.346-15.282 61.235-14.306 90.172-13.006-33.056-10.513-54.407-3.035-84.645 0 0-59.175 78.142-13.006 172.108 46.062 94.074 14.09 152.599-30.996 68.93-7.045-13.114-12.681-25.253-17.233-36.416 1.951-33.489-.867-69.038-8.887-104.478-26.661-117.376 9.971-188.582 9.971-188.582l-5.31 13.006 5.31-13.006s-52.889 21.243-65.895 123.662c-10.079-27.745-24.277-45.195-24.277-45.195l8.345 12.247-8.345-12.247 2.384 13.331-2.384-13.331s18.966 79.877-14.957 134.825c-33.923 54.949-16.473-30.238-9.754-52.347l-9.537 11.38 9.537-11.38s-64.161 62.101-36.416 172.758c-27.42-19.617-57.549-83.453 29.371-219.687 105.346-164.955 2.927-334.461 2.927-334.461l14.306 29.046m28.396 442.191c2.817-4.986 5.31-9.863 7.478-14.74-3.143 61.885-17.341 88.005-33.165 98.409q-3.684-32.839 25.687-83.669z" fill="url(#d)"/><path d="m253.973-1094.357c-45.628-73.915-20.05-181.319-20.05-181.319l-3.252 17.991 3.252-17.991-12.898 19.074 12.898-19.074s-89.414 109.572-18.75 231.716c70.664 122.253 15.932 157.91-3.685 157.91-19.508 0-55.599-3.251-41.943-111.631 13.764-108.381-40.968-134.5-40.968-134.5l8.345 5.744-8.345-5.744 3.252 9.429-3.252-9.429s23.735 52.131-4.118 131.357c-9.971 28.287-14.415 57.224-13.439 84.428-12.139-30.997-9.863-51.047-2.818-79.335l-8.02 12.789 8.02-12.789s-55.491 73.157-12.247 161.27c43.243 88.113 13.222 142.845-28.938 64.486-6.611-12.247-11.922-23.627-16.148-34.031 1.734-31.43-.867-64.703-8.454-97.976-24.927-109.897 9.429-176.551 9.429-176.551l-4.985 12.139 4.985-12.139-7.912 4.552 7.912-4.552s-49.53 19.834-61.777 115.75c-9.429-26.011-22.759-42.268-22.759-42.268l7.803 11.38-7.803-11.38 2.276 12.463-2.276-12.463s17.774 74.782-13.981 126.263c-31.756 51.48-15.39-28.288-9.104-48.988l-8.996 10.729 8.996-10.729s-60.043 58.2-34.14 161.811c-25.686-18.424-53.865-78.142 27.528-205.814 98.626-154.55 2.71-313.327 2.71-313.327l13.439 27.204-13.439-27.204 2.059 24.494-2.059-24.494s19.183 147.397-43.894 240.388c-63.077 93.098-22.435-57.334-8.129-96.025l-14.306 15.281 14.306-15.281s-91.798 81.502-89.196 246.781c-.542 8.671-.217 17.775 1.3 27.312 1.626 20.917 4.552 42.919 9.538 66.329 9.754 52.239-8.562 63.836-24.278 36.957-.433-8.562.109-19.183 1.735-32.189 8.453-67.52-25.578-83.777-25.578-83.777l5.202 3.576-5.202-3.576 2.601 7.803-2.601-7.803s4.877 10.838 5.744 29.479c-.65 17.883-6.178 48.446-29.263 91.364-37.716 70.014-64.486 21.135-25.902-57.658 38.691-78.792-10.947-144.254-10.947-144.254l7.153 11.489-7.153-11.489c6.286 25.361 8.345 43.352-2.493 70.989.867-24.277-3.143-50.18-12.03-75.541-24.819-70.772-3.685-117.267-3.685-117.267l-2.926 8.345 2.926-8.345-7.478 5.094 7.478-5.094s-48.879 23.193-36.632 120.194c12.247 96.891-19.942 99.709-37.5 99.709-17.557 0-66.437-31.863-3.251-141.111 63.185-109.247-16.691-207.114-16.691-207.114l11.489 17.016-11.489-17.016 2.927 16.04-2.927-16.04s22.76 95.916-17.991 162.028c-40.751 66.004-19.833-36.307-11.705-62.86l-12.68 15.281 12.68-15.281s-86.054 83.236-37.174 230.524c15.498 50.722-20.918 45.628-32.948-17.666v.326c-4.877-22.11-13.005-38.801-24.819-45.629l2.71 6.287-2.71-6.287s19.617 32.298-1.084 114.667c-20.05 79.334-57.224 40.642-38.366-47.362 18.858-88.005-44.003-135.367-44.003-135.367l9.538 8.779-9.538-8.779c20.593 38.691 23.952 60.042-12.572 163.437-7.478 21.134-11.488 40.209-13.114 57.441-.65-2.276-1.3-4.552-2.167-6.827-17.233-49.422-2.493-81.936-2.493-81.936l-2.059 5.853 2.059-5.853-5.202 3.577 5.202-3.577s-34.14 16.257-25.578 83.995c8.562 67.629-13.872 69.58-26.119 69.58s-46.17-22.218-2.276-98.518c44.002-76.299-11.705-144.579-11.705-144.579l8.02 11.814-8.02-11.814 2.059 11.163-2.059-11.163s15.932 66.979-12.464 113.149c-28.287 46.062-13.764-25.361-8.129-43.894l-8.778 10.73 8.778-10.73s-59.934 58.092-25.794 160.945c10.73 35.331-14.631 31.863-22.977-12.356l-.542 8.996.542-8.996s-8.02 55.491 34.465 79.118c15.173 8.345 28.938 10.838 40.426 10.404h472.212v-.325h259.137v.325h545.911c12.897.434 28.287-2.276 45.303-11.596 47.47-26.445 38.583-88.547 38.583-88.547l.65 10.079-.65-10.079c-9.321 49.421-37.716 53.431-25.686 13.764 38.15-114.991-29.046-180.019-29.046-180.019l9.863 11.922-9.863-11.922c6.395 20.809 22.652 100.685-9.104 49.096-31.755-51.589-13.981-126.48-13.981-126.48l-2.276 12.464 2.276-12.464-8.995 13.223 8.995-13.223s-62.21 76.408-13.005 161.704c49.312 85.403 11.163 110.222-2.493 110.222s-38.8-2.276-29.263-77.925c9.538-75.649-28.612-93.857-28.612-93.857l5.852 4.01-5.852-4.01 2.276 6.502-2.276-6.502s16.582 36.307-2.818 91.581l-2.384 7.586c-1.843-19.183-6.287-40.642-14.632-64.269-40.967-115.533-37.066-139.377-14.089-182.729l-10.621 9.863 10.621-9.863s-70.339 52.998-49.205 151.407c21.026 98.518-20.484 141.761-42.918 52.998-23.194-92.123-1.301-128.322-1.301-128.322l-3.035 7.045 3.035-7.045c-13.114 7.695-22.218 26.336-27.637 51.155l-.108-.433c-13.331 70.772-54.082 76.516-36.741 19.833 54.624-164.846-41.726-257.944-41.726-257.944l14.197 17.124-14.197-17.124c9.212 29.696 32.514 144.145-13.006 70.338zm-273.66 250.684c2.71-4.552 4.986-9.213 7.045-13.765-2.926 57.984-16.257 82.369-30.997 92.232q-3.685-30.563 23.952-78.467z" fill="#f5df41"/><path d="m-217.032-1131.605-9.863-10.621 2.493 10.079-2.493-10.079s19.508 60.042-15.282 101.227c-34.79 41.293-17.015-22.652-9.971-39.234l-10.838 9.538 10.838-9.538s-73.59 52.023-31.863 144.146c13.222 31.647-17.775 28.504-28.071-11.163v.216c-4.118-13.764-11.055-24.277-21.134-28.504l2.384 4.011-2.384-4.011s16.691 20.268-.975 71.64c-1.626 4.66-3.36 8.67-4.986 11.813-6.611-20.484-22.76-31.864-22.76-31.864l6.286 5.636-6.286-5.636c4.01 9.646 14.415 47.037-5.852 22.977-1.084-1.301-2.059-2.709-3.577-4.877 0-7.37 1.301-16.907 4.444-27.637 16.148-54.949-37.608-84.537-37.608-84.537l8.128 5.528-8.128-5.528c17.558 24.169 20.484 37.5-10.73 102.095-.975 2.059-1.842 4.01-2.601 5.852-.758-.542-1.409-.975-2.059-1.409l-3.685-1.842 1.409 3.034c.759 1.951 1.409 4.01 1.842 6.178-3.251 8.67-5.093 16.691-6.069 24.06l-1.842-4.226c-14.74-30.889-2.168-51.156-2.168-51.156l-1.734 3.685 1.734-3.685-4.443 2.276c-3.469 2.059-6.503 4.769-9.213 8.02-1.084 1.409-2.059 2.818-2.926 4.227-14.306-33.923-10.621-44.544 1.734-61.56l-6.828 4.552c-5.311 4.119-9.971 8.671-13.981 13.656-.325.325-.542.759-.867 1.192-.108-.325-.325-.758-.434-1.084-2.926-6.936-7.044-13.547-12.246-19.942l-6.828-7.369 1.734 7.044-1.734-7.044s13.655 41.943-10.622 70.772c-6.502 7.586-10.296 10.079-13.222 9.104-.542-4.01-.759-7.695-.759-11.597.976-7.912 3.36-16.257 7.045-25.036l-1.951 1.734c-5.094 2.385-9.212 6.72-12.464 12.898-6.069 7.803-12.247 18.533-15.064 31.863-2.818 3.035-5.636 4.877-8.346 5.636-3.359.759-5.635-.325-6.611-3.36-1.192-3.359-.433-8.128 2.168-14.414 35.007-77.058-26.553-120.736-26.553-120.736l9.104 8.02-9.104-8.02c5.744 13.981 20.7 67.521-8.454 32.948-29.046-34.573-12.789-84.753-12.789-84.753l-2.059 8.345 2.059-8.345-8.237 8.887 8.237-8.887s-57.116 51.155-11.922 108.38c45.195 57.116 10.188 73.807-2.384 73.807-12.464 0-35.549-1.518-26.77-52.24s-26.228-62.86-26.228-62.86l5.311 2.709-5.311-2.709 2.059 4.443-2.059-4.443s15.173 24.385-2.601 61.451c-6.395 13.223-9.212 26.77-8.562 39.451-7.803-14.415-6.286-23.844-1.843-37.066l-5.093 5.961 5.093-5.961s-35.44 34.248-7.803 75.432c27.637 41.185 8.454 66.871-18.533 30.13-16.474-22.435-20.484-38.367-20.917-47.796.65-9.645 4.118-15.39 4.118-15.39l-1.842 4.119 1.842-4.119-3.685 1.843 3.685-1.843s-24.385 8.454-18.316 43.894c1.192 6.828 1.517 12.356 1.3 16.799-11.271 14.09-24.385 8.02-17.34-19.4 3.468-12.138 5.635-23.735 6.719-34.681 1.192-4.986 1.409-9.755.976-14.307 1.842-86.487-63.728-129.08-63.728-129.08l10.188 8.02-10.188-8.02c10.188 20.158 39.234 98.951-5.852 50.18-45.087-48.663-31.431-125.721-31.431-125.721l-1.409 12.789 1.409-12.789-9.645 14.198 9.645-14.198s-68.496 83.019 1.951 163.871c58.2 66.87 38.042 98.084 19.725 107.729 18.533-54.19-24.385-84.645-24.385-84.645l6.394 5.636-6.394-5.636c4.552 10.838 16.148 52.565-6.503 25.578-22.76-26.878-10.079-66.003-10.079-66.003l-1.626 6.503 1.626-6.503-5.636 5.961 5.636-5.961s-9.538 8.562-16.257 22.109c-8.671-50.18-44.111-60.584-44.111-60.584l5.636 2.384-5.636-2.384 3.576 6.394-3.576-6.394s24.494 34.898 6.72 92.448c-5.419 17.341-7.262 34.79-6.07 51.264-3.034 5.419-6.828 11.38-11.488 17.774-30.13 40.968-51.589 12.355-20.701-33.706 30.889-46.17-8.778-84.428-8.778-84.428l5.744 6.719-5.744-6.719c4.985 14.739 6.719 25.252-2.06 41.509.759-14.197-2.492-29.371-9.537-44.219-19.942-41.401-2.926-68.713-2.926-68.713l-2.385 4.877 2.385-4.877-5.961 3.035 5.961-3.035s-39.126 13.656-29.371 70.339c9.754 56.791-15.932 58.417-30.022 58.417-13.981 0-53.106-18.641-2.601-82.586 50.614-63.944-13.331-121.277-13.331-121.277l9.213 9.971-9.213-9.971 2.385 9.429-2.385-9.429s18.208 56.249-14.306 94.832c-32.622 38.692-15.932-21.242-9.429-36.74l-10.188 8.995 10.188-8.995s-68.821 48.771-29.696 134.933c12.355 29.696-16.799 26.77-26.336-10.296v.217c-3.902-13.006-10.405-22.76-19.834-26.77l2.168 3.685-2.168-3.685s15.715 18.966-.975 67.087c-15.932 46.495-45.737 23.844-30.564-27.637 15.065-51.589-35.223-79.226-35.223-79.226l7.587 5.094-7.587-5.094c16.474 22.652 19.183 35.115-10.079 95.591-5.961 12.356-9.213 23.627-10.513 33.598l-1.626-3.901c-13.873-28.938-2.059-48.013-2.059-48.013l-1.626 3.468 1.626-3.468-4.119 2.059 4.119-2.059s-27.312 9.538-20.484 49.205c6.828 39.558-11.055 40.751-20.809 40.751s-36.958-13.006-1.734-57.659c35.007-44.652-9.321-84.644-9.321-84.644l6.395 6.936-6.395-6.936 1.626 6.502-1.626-6.502s12.681 39.125-10.079 66.111c-22.652 26.987-10.947-14.739-6.503-25.686l-7.045 6.286 7.045-6.286s-47.904 34.14-20.701 94.291c8.671 20.701-11.705 18.641-18.316-7.261l-.433 5.31.433-5.31s-6.394 32.514 27.529 46.278c12.138 4.877 23.193 6.394 32.405 6.178h390.169v-.217h185.33v.217h232.421.054 3.902 101.119 2.059 313.543v-.326h197.686v.326h117.863.054 3.902 238.545c1.3.108 2.601.108 4.01 0h-.054 670.602c8.237.108 18.099-1.193 28.937-5.528 30.347-12.247 24.602-41.401 24.602-41.401l.434 4.769-.434-4.769c-5.852 23.193-24.06 25.036-16.365 6.503 24.386-53.757-18.533-84.212-18.533-84.212l6.286 5.636-6.286-5.636c4.119 9.646 14.523 47.037-5.744 22.977-20.376-24.169-8.996-59.176-8.996-59.176l-1.409 5.853 1.409-5.853s-39.775 35.766-8.345 75.65c31.539 39.884 7.153 51.589-1.626 51.589-8.67 0-24.71-1.084-18.641-36.524 6.069-35.332-18.316-43.894-18.316-43.894l3.685 1.842-3.685-1.842 1.517 3.034-1.517-3.034s10.621 17.015-1.843 42.918l-1.517 3.468c-1.084-8.995-3.902-18.966-9.321-30.021-26.119-54.082-23.735-65.245-8.995-85.512 0 0-44.978 24.819-31.43 70.881 13.439 46.061-13.114 66.22-27.421 24.71-14.848-43.026-.867-60.042-.867-60.042l-1.951 3.36 1.951-3.36c-8.345 3.576-14.198 12.355-17.666 23.952v-.217c-8.562 33.164-34.681 35.874-23.518 9.321 34.898-77.058-26.662-120.736-26.662-120.736l9.104 8.02-9.104-8.02c5.853 13.981 20.809 67.521-8.345 32.948s-12.789-84.753-12.789-84.753l-2.059 8.345 2.059-8.345s-57.116 51.155-12.03 108.38c45.195 57.116 10.188 73.807-2.276 73.807-12.572 0-35.549-1.518-26.77-52.24 8.671-50.722-26.228-62.86-26.228-62.86l5.311 2.709-5.311-2.709 2.059 4.443-2.059-4.443s15.065 24.385-2.709 61.451c-6.286 13.223-9.104 26.77-8.562 39.451-7.804-14.415-6.286-23.844-1.734-37.066 0 0-35.441 34.248-7.912 75.432 27.637 41.185 8.453 66.871-18.533 30.13-16.474-22.435-20.376-38.367-20.809-47.796.542-9.645 4.01-15.39 4.01-15.39l-1.843 4.119 1.843-4.119s-24.277 8.454-18.208 43.894c1.192 6.828 1.517 12.356 1.192 16.799-11.271 14.09-24.385 8.02-17.341-19.4 3.577-12.138 5.636-23.735 6.828-34.681 1.084-4.986 1.301-9.755.867-14.307 1.843-86.487-63.727-129.08-63.727-129.08l10.188 8.02-10.188-8.02c10.188 20.158 39.342 98.951-5.744 50.18-45.086-48.663-31.431-125.721-31.431-125.721l-1.408 12.789 1.408-12.789s-68.604 83.019 1.951 163.871c58.2 66.87 38.042 98.084 19.725 107.729 18.533-54.19-24.493-84.645-24.493-84.645l6.394 5.636-6.394-5.636c4.552 10.838 16.257 52.565-6.503 25.578-22.76-26.878-9.971-66.003-9.971-66.003l-1.626 6.503 1.626-6.503-5.636 5.961 5.636-5.961s-9.538 8.562-16.257 22.109c-8.779-50.18-44.219-60.584-44.219-60.584l5.635 2.384-5.635-2.384 3.576 6.394-3.576-6.394s24.602 34.898 6.719 92.448c-5.31 17.341-7.261 34.79-5.961 51.264-3.034 5.419-6.828 11.38-11.596 17.774-30.13 40.968-51.589 12.355-20.701-33.706 30.888-46.17-8.779-84.428-8.779-84.428l5.744 6.719-5.744-6.719c5.094 14.739 6.72 25.252-1.951 41.509.651-14.197-2.492-29.371-9.645-44.219-19.834-41.401-2.927-68.713-2.927-68.713l-2.384 4.877 2.384-4.877-5.961 3.035 5.961-3.035s-39.125 13.656-29.262 70.339c4.227 24.711 2.276 41.51-6.07 50.505-1.95 2.059-4.443 3.793-7.369 5.094-1.843-2.384-3.902-4.66-6.07-6.936l-6.719-5.961c2.167 5.202 3.793 10.188 4.985 15.065-2.709.433-5.636.65-8.779.65-3.034 0-6.177-.65-9.32-1.951-4.227-8.67-6.286-18.858-5.961-30.455.108-5.31.758-10.513 1.842-15.715l1.518-6.286-6.07 6.611c-3.901 4.769-7.044 9.754-9.537 14.957 1.192-13.656 9.537-30.238 24.927-49.747 50.505-63.944-13.439-121.277-13.439-121.277l9.212 9.971-9.212-9.971 2.385 9.429-2.385-9.429s18.316 56.249-14.306 94.832c-32.622 38.692-15.824-21.242-9.321-36.74l-10.187 8.995 10.187-8.995s-68.929 48.771-29.804 134.933c2.926 7.045 3.793 12.355 2.492 16.149-1.192 3.359-3.576 4.66-7.369 3.793-1.301-.325-2.601-.867-3.902-1.626-11.597-24.602-17.774-42.485-18.533-53.54-.65-9.862 3.251-20.592 11.597-32.08l-7.262 4.877c-5.744 4.335-10.729 9.212-14.956 14.523-2.927 3.685-5.419 7.478-7.479 11.38-.325-.109-.541-.217-.758-.325l.488.812.054.055c-7.045 13.764-8.346 28.504-3.685 44.327 1.842 6.395 3.143 12.355 3.685 17.883-.542 1.3-.976 2.601-1.409 4.01-3.794 11.055-8.345 18.533-13.656 22.543-2.059 1.517-4.01 2.384-5.853 2.71-4.66-3.902-8.67-10.839-12.03-20.701-1.192-3.468-2.276-6.828-3.143-10.188.325-6.828 1.734-14.089 4.01-22.001 15.065-51.589-35.223-79.226-35.223-79.226l7.586 5.094-7.586-5.094c16.473 22.652 19.183 35.115-10.08 95.591-.65 1.409-1.3 2.71-1.842 4.119-.434-.542-.759-1.084-.976-1.843-1.192-3.576-.433-8.67 2.385-15.39 37.283-82.26-28.396-128.755-28.396-128.755l9.646 8.562-9.646-8.562c6.178 14.848 22.11 71.964-8.995 35.115-31.105-36.958-13.656-90.497-13.656-90.497l-2.276 8.995 2.276-8.995-8.779 9.537 8.779-9.537s-60.91 54.623-12.789 115.641c20.809 26.337 28.07 47.146 21.893 62.427-.542 1.192-1.084 2.276-1.626 3.36 1.192-9.538-.434-19.292-4.769-29.263-2.818-6.503-6.611-12.68-11.488-18.641l-6.394-6.936 1.625 6.502-1.625-6.502s12.788 39.125-9.971 66.111c-.217.326-.434.542-.651.759-5.094-1.192-8.995-3.251-11.922-6.178 1.084-6.394 3.143-13.222 6.07-20.267l-7.045 6.286c-1.626 1.626-3.035 3.252-4.444 4.986-3.468-9.212-3.684-22.326-.758-39.45 9.32-54.191-27.962-67.196-27.962-67.196l5.635 2.926-5.635-2.926 2.276 4.66-2.276-4.66s16.148 26.011-2.818 65.57c-6.72 14.089-9.754 28.612-9.104 42.16-8.345-15.499-6.72-25.47-1.951-39.667l-5.419 6.394 5.419-6.394s-37.825 36.632-8.345 80.634c29.479 44.003 8.995 71.314-19.725 32.189-17.666-23.952-21.893-41.076-22.327-51.047.651-10.404 4.336-16.474 4.336-16.474l-1.951 4.336 1.951-4.336-4.011 2.06 4.011-2.06s-26.012 9.104-19.509 46.821c1.301 7.261 1.626 13.222 1.301 17.991-12.031 14.956-26.012 8.562-18.533-20.701 3.793-13.005 6.069-25.361 7.261-37.066 1.192-5.31 1.409-10.404.976-15.173 2.059-92.34-67.955-137.968-67.955-137.968l10.947 8.562-10.947-8.562c10.838 21.676 41.943 105.671-6.286 53.757-48.121-52.023-33.489-134.392-33.489-134.392l-1.518 13.656 1.518-13.656-10.296 15.173 10.296-15.173s-73.157 88.764 2.059 175.034c62.102 71.314 40.642 104.695 21.026 114.991 19.833-57.875-26.012-90.389-26.012-90.389l6.828 5.961-6.828-5.961c4.769 11.597 17.233 56.141-7.044 27.421-24.169-28.83-10.622-70.556-10.622-70.556l-1.734 6.936 1.734-6.936-5.96 6.395 5.96-6.395s-10.187 9.104-17.34 23.627c-9.321-53.54-47.146-64.703-47.146-64.703l6.07 2.601-6.07-2.601 3.794 6.828-3.794-6.828s26.228 37.283 7.153 98.626c-5.744 18.641-7.803 37.174-6.394 54.732-3.251 5.852-7.262 12.247-12.355 19.075-32.189 43.785-55.057 13.114-22.11-36.091 32.948-49.204-9.321-90.064-9.321-90.064l6.07 7.153-6.07-7.153c5.311 15.824 7.153 26.987-2.167 44.328.758-15.173-2.601-31.322-10.188-47.146-21.242-44.327-3.143-73.373-3.143-73.373l-2.493 5.202 2.493-5.202-6.394 3.252 6.394-3.252s-41.835 14.523-31.322 75.108c10.405 60.584-17.124 62.318-32.08 62.318-14.957 0-56.683-19.833-2.71-88.113 53.865-68.279-14.306-129.514-14.306-129.514m193.458 241.362c15.932 20.159 19.834 34.249 18.317 43.786-11.272-5.419-21.351-19.075-23.627-51.481 1.517 2.602 3.251 5.094 5.31 7.695zm-840.379 6.395c14.956 18.966 18.641 32.08 17.232 41.076-10.512-5.202-20.05-17.991-22.217-48.229q2.492 4.01 4.985 7.153zm1548.21 0c14.957 18.966 18.641 32.08 17.124 41.076-10.513-5.202-20.05-17.991-22.109-48.229 1.409 2.384 3.034 4.768 4.985 7.153zm-1149.154-8.887c1.625 7.695 2.059 14.631 1.409 20.917-.759 7.695-3.035 13.006-6.72 16.04-3.577 3.035-7.587 2.927-11.922-.325-.758-.542-1.517-1.3-2.276-2.059 1.843-8.129 7.153-18.858 17.775-32.297.541-.759 1.192-1.518 1.734-2.276z" fill="#fff"/></g><path d="m845.851 485.151s-4.45-.7-5.55 3.95c0 0-1.65-7 1.1-11.9 0 0-10.95 5.3-7.25 17.9 0 0-1.9-1.1-4.2-.45l1.9 1.1-1.9-1.1s12.5 5.4 8.5 21.65l1.45-1.35q1.7-1.8 2.85-3.85 3.85-6.6 1.3-13.65c-4-11.1 1.8-12.3 1.8-12.3z" fill="url(#e)"/><path d="m1010.551 568.801s-7.05 3.4-4.65 11.5c0 0-1.25-.7-2.7-.3l1.2.7-1.2-.7s8 3.5 5.45 13.9l2.8-3.35q2.45-4.2.8-8.75c-2.55-7.1 1.15-7.9 1.15-7.9l-1.55 1.3 1.55-1.3s-2.85-.45-3.55 2.55c0 0-1.05-4.5.7-7.65z" fill="url(#f)"/><path d="m297.101 500.201s16.5 7.2 11.2 28.7q3.2-2.5 5.75-6.9 5.05-8.75 1.7-18.05c-5.3-14.7 2.4-16.35 2.4-16.35l-1.1.5 1.1-.5s-5.9-.9-7.35 5.25c0 0-2.2-9.25 1.45-15.75l-2.2 1.35 2.2-1.35s-14.55 7.05-9.6 23.7c0 0-2.55-1.45-5.55-.6z" fill="url(#g)"/><path d="m342.651 370.951-2.65-2.2s5.8 2.5 3.95 10.05q1.1-.85 2-2.4 1.75-3.05.6-6.3c-1.9-5.15.8-5.75.8-5.75l-1.1.95 1.1-.95s-2.05-.3-2.55 1.85c0 0-.8-3.25.5-5.5l-2.35 1.95 2.35-1.95s-5.1 2.45-3.35 8.25c0 0-.9-.5-1.95-.2" fill="url(#h)"/><path d="m101.651 387.301c-5.8 4.15-5.8 8.15-4.05 12.65 1.8 4.45-1.4 9.25-1.4 9.25 8.1-5.65 8.55-10 5.95-14.1q-1.6-2.6-1.2-5.45z" fill="url(#j)"/><path d="m635.201 577.001c-5.85 4.15-5.85 8.15-4.1 12.6 1.8 4.5-1.4 9.3-1.4 9.3 8.1-5.65 8.55-10 6-14.1q-1.6-2.6-1.2-5.45z" fill="url(#k)"/><path d="m221.551 823.051c-5.15 3.65-5.15 7.15-3.6 11.1 1.55 4-1.25 8.2-1.25 8.2 7.15-4.95 7.55-8.8 5.3-12.45q-1.45-2.3-1.1-4.8z" fill="url(#m)"/><path d="m761.801 793.501c-5.2 3.65-5.2 7.2-3.6 11.15 1.55 3.95-1.25 8.2-1.25 8.2 7.15-5 7.55-8.85 5.25-12.5q-1.4-2.3-1.05-4.8z" fill="url(#n)"/><path d="m844.951 796.151c-5.2 3.65-5.2 7.2-3.6 11.15 1.55 4-1.25 8.2-1.25 8.2 7.15-5 7.55-8.8 5.25-12.45q-1.4-2.3-1.05-4.8z" fill="url(#o)"/><path d="m662.751 409.951c-3.3 2.3-3.3 4.55-2.3 7.1 1 2.5-.8 5.2-.8 5.2 4.6-3.15 4.85-5.6 3.4-7.95q-.9-1.45-.7-3.05z" fill="url(#p)"/><path d="m171.901 522.701c-3.3 2.35-3.3 4.6-2.3 7.1 1 2.55-.8 5.2-.8 5.2 4.55-3.15 4.8-5.6 3.35-7.9q-.85-1.45-.65-3.1z" fill="url(#q)"/><path d="m698.751 286.951c-3.3 2.3-3.3 4.55-2.25 7.1 1 2.5-.8 5.2-.8 5.2 4.55-3.2 4.8-5.6 3.35-7.95q-.9-1.45-.7-3.05z" fill="url(#r)"/><path d="m907.901 506.701c-3.3 2.35-3.3 4.6-2.3 7.1 1 2.55-.8 5.2-.8 5.2 4.55-3.15 4.8-5.6 3.35-7.9q-.85-1.45-.65-3.1z" fill="url(#s)"/><path d="m777.801 377.351c-4.3 3.05-4.3 6-3 9.3s-1.05 6.85-1.05 6.85c6-4.15 6.3-7.35 4.4-10.4q-1.15-1.9-.85-4z" fill="url(#t)"/><path d="m506.251 190.451c-5.85 4.15-5.85 8.15-4.1 12.65 1.8 4.45-1.4 9.25-1.4 9.25 8.1-5.65 8.55-10 6-14.1q-1.6-2.6-1.2-5.45z" fill="url(#v)"/><path d="m980.151 343.101c-3.65 2.55-3.65 5.05-2.5 7.85 1.1 2.8-.9 5.8-.9 5.8 5.05-3.5 5.35-6.25 3.75-8.8q-1-1.6-.75-3.4z" fill="url(#w)"/><path d="m253.001 295.401c-3.65 2.6-3.65 5.1-2.55 7.9s-.9 5.8-.9 5.8c5.1-3.55 5.35-6.25 3.75-8.85q-1-1.6-.75-3.4z" fill="url(#x)"/><path d="m625.801 361.201c-4.4 3.1-4.4 6.1-3.05 9.45 1.3 3.4-1.1 6.95-1.1 6.95 6.1-4.2 6.45-7.45 4.5-10.55q-1.2-1.95-.9-4.1z" fill="url(#y)"/><path d="m275.601 565.451c-4 2.8-4 5.55-2.75 8.65 1.2 3.1-1 6.35-1 6.35 5.6-3.85 5.9-6.85 4.1-9.7q-1.1-1.8-.85-3.7z" fill="url(#z)"/><path d="m87.151 612.151c9.35-6.65 9.35-13.05 6.5-20.25s2.3-14.85 2.3-14.85l-2.2 4.75 2.2-4.75c-13 9.05-13.7 16-9.6 22.65q2.55 4.15 1.95 8.7-.3 2.3-1.15 3.75z" fill="url(#A)"/><path d="m813.851 593.751c-4.05 2.85-4.05 5.6-2.8 8.65 1.2 3.1-1 6.4-1 6.4 5.6-3.9 5.9-6.9 4.1-9.7q-1.1-1.8-.8-3.75z" fill="url(#B)"/><path d="m514.151 629.101c-4 2.8-4 5.55-2.75 8.65 1.2 3.1-1 6.35-1 6.35 5.6-3.85 5.85-6.85 4.1-9.7q-1.1-1.75-.85-3.7z" fill="url(#C)"/><path d="m152.151 567.101c-4 2.8-4 5.55-2.75 8.65 1.2 3.1-1 6.35-1 6.35 5.6-3.85 5.85-6.85 4.1-9.7q-1.1-1.75-.85-3.7z" fill="url(#D)"/><path d="m1048.151 643.101c-4 2.8-4 5.55-2.75 8.65 1.2 3.1-1 6.35-1 6.35 5.6-3.85 5.85-6.85 4.1-9.7q-1.1-1.75-.85-3.7z" fill="url(#E)"/><path d="m60.151 653.101c-4 2.8-4 5.55-2.75 8.65 1.2 3.1-1 6.35-1 6.35 5.6-3.85 5.85-6.85 4.1-9.7q-1.1-1.75-.85-3.7z" fill="url(#F)"/><path d="m16.151 615.101c-4 2.8-4 5.55-2.75 8.65 1.2 3.1-1 6.35-1 6.35 5.6-3.85 5.85-6.85 4.1-9.7q-1.1-1.75-.85-3.7z" fill="url(#G)"/><path d="m512.401 522.651c7.6-5.2 7.7-10.35 5.5-16.15-2.2-5.85 2-11.9 2-11.9l-1.8 3.75 1.8-3.75c-10.55 7.05-11.2 12.65-8 18.05q2 3.35 1.45 7-.25 1.85-.95 3z" fill="url(#H)"/><path d="m599.851 615.751c-4.05 2.85-4.05 5.6-2.8 8.65 1.2 3.1-1 6.4-1 6.4 5.6-3.9 5.9-6.9 4.1-9.7q-1.1-1.8-.8-3.75z" fill="url(#I)"/><path d="m125.851 531.751c-4.05 2.85-4.05 5.6-2.8 8.65 1.2 3.1-1 6.4-1 6.4 5.6-3.9 5.9-6.9 4.1-9.7q-1.1-1.8-.8-3.75z" fill="url(#J)"/><path d="m965.351 446.351c-9 6.4-9 12.55-6.25 19.5s-2.2 14.35-2.2 14.35c12.55-8.75 13.2-15.45 9.25-21.85q-2.5-4-1.9-8.4z" fill="url(#K)"/><path d="m718.551 373.751 1.3-4.25c-10.55 7.5-10.55 14.7-7.35 22.8s-2.55 16.7-2.55 16.7c14.65-10.15 15.4-18 10.8-25.45q-2.9-4.65-2.2-9.8z" fill="url(#L)"/><path d="m14.101 528.751c-8.5 6-8.5 11.8-5.95 18.35 2.6 6.5-2.05 13.45-2.05 13.45 11.8-8.2 12.45-14.5 8.7-20.5q-2.35-3.8-1.75-7.9z" fill="url(#M)"/><path d="m865.101 366.701c-5.3 3.75-5.3 7.4-3.7 11.45 1.6 4.1-1.3 8.45-1.3 8.45 7.4-5.15 7.8-9.1 5.45-12.85q-1.45-2.35-1.1-4.95z" fill="url(#h)"/><path d="m568.951 746.751c-6.8 4.75-6.8 9.4-4.7 14.6 2.05 5.2-1.65 10.7-1.65 10.7 9.4-6.5 9.9-11.55 6.9-16.35q-1.85-2.95-1.4-6.25z" fill="url(#N)"/><path d="m947.901 848.751c-4.35 3.05-4.35 6.05-3 9.4 1.3 3.35-1.1 6.9-1.1 6.9 6.1-4.2 6.4-7.45 4.5-10.55q-1.2-1.9-.95-4z" fill="url(#P)"/><path d="m1008.301 785.351c-4.35 3.1-4.35 6.05-3.05 9.4 1.35 3.35-1.05 6.95-1.05 6.95 6.05-4.2 6.4-7.45 4.45-10.55q-1.2-1.95-.9-4.05z" fill="url(#Q)"/><path d="m447.351 785.351c-4.4 3.1-4.4 6.05-3.05 9.4s-1.05 6.95-1.05 6.95c6.05-4.2 6.35-7.45 4.45-10.55q-1.2-1.95-.9-4.05z" fill="url(#R)"/><path d="m18.201 804.351c-3.85 2.7-3.85 5.35-2.65 8.25 1.15 2.95-.95 6.05-.95 6.05 5.3-3.65 5.6-6.5 3.9-9.2q-1.05-1.7-.75-3.55z" fill="url(#S)"/><path d="m603.701 900.451c-5.2 3.65-5.2 7.15-3.6 11.1 1.55 4-1.25 8.2-1.25 8.2 7.15-4.95 7.55-8.8 5.25-12.45q-1.4-2.3-1.05-4.8z" fill="url(#T)"/></g><path d="m974.5 612.95q6.914-34.26 8.825-70.575l-405.85-405.85-96.35 225.675-105.075 13.75 79.925 79.925 16.075 433.325 94.05 94.05c14.2-1.5 28.2-3.6 41.7-6.2 7.95-1.55 15.8-3.3 23.4-5.15 80.8-20.3 152.15-61.6 214.65-124.1 6.1-6.1 12-12.25 17.5-18.3 39.85-43.85 69.75-91.6 89.85-143.5 9.1-23.45 16.15-47.75 21.3-73.05z" fill-opacity=".2"/><path d="m466 389.8c-2.2 0-4.25.55-6.1 1.7-1.8 1.1-3.2 2.45-4.15 4.25l-.25.4c-1.05 1.95-1.45 4.05-1.35 6.25.45 8.85 1.05 26.85 1.65 53.75l66.65 66.6v-132.95z" fill="#fff"/><path d="m588.15 394.85c-.95-1.35-2.15-2.45-3.6-3.35-1.9-1.15-3.95-1.7-6.15-1.7h-55.95v132.95l63.3 63.35.3-17.85c.3-12.2.9-27.1 1.75-73.3.95-49.15 1.8-80 2.5-92.55q.2-3.35-1.35-6.25zm-66.1 528.7h.4v-67.8h-68.3c.05 1.3.25 2.6.75 3.8 10.1 27.4 30.95 48.4 62.45 62.95 1.55.65 3.1 1 4.7 1.05z" fill="#999"/><path d="m522.45 550.3v-27.55l-66.65-66.6c.25 11.4.55 24.3.8 38.8.9 46.2 1.45 61.1 1.8 73.3l-32.75 32.7c-.75.5-1.4 1.05-2.1 1.75-2.3 2.3-3.45 5.1-3.45 8.4v.35c0 3.3 1.15 6.05 3.45 8.4.65.65 1.35 1.2 2 1.6l34.2 34.2c.05 22.35.05 12.95-.1 35.35l-.3 40.8c-1.15 41.05-2.9 82-5.2 122.9-.05.35-.05.7 0 1.05h68.3z" fill="#ccc"/><path d="m522.45 522.75v27.55 305.45h67.85v-1.05c-2.3-40.9-4.05-81.85-5.2-122.9l-.35-40.8c-.1-22.4-.15-13-.05-35.35l1.05-69.55z" fill="#3a3a3a"/><path d="m589.55 859.55c.45-1.2.75-2.5.75-3.8h-67.85v67.8c1.55-.05 3.1-.4 4.6-1.05 31.55-14.55 52.35-35.55 62.5-62.95z" fill="#2e2e2e"/><path d="m477.95 314.05v55.6c0 12.25 4.35 22.75 13 31.4s19.1 12.95 31.35 12.95 22.75-4.3 31.4-12.95c1.9-1.95 3.6-3.95 5.15-6.1l-36.55-36.5zm44.35-153.05q-18.4 0-31.35 13c-1.65 1.65-3.15 3.35-4.5 5.15l35.85 35.8z" fill="#630"/><path d="m553.7 174c-8.65-8.65-19.15-13-31.4-13v53.95l44.4 44.4v-53.95c0-12.25-4.35-22.75-13-31.4z" fill="#4f2700"/><path d="m477.95 205.4v38.1l44.35 44.35v-72.9l-35.85-35.8c-5.65 7.55-8.5 16.3-8.5 26.25z" fill="#7f4513"/><path d="m477.95 243.5v70.55l44.35 44.4v-70.6z" fill="#733900"/><path d="m522.3 214.95v72.9l44.4 44.4v-72.9z" fill="#6f3b0f"/><path d="m558.85 394.95c5.25-7.35 7.85-15.75 7.85-25.3v-37.4l-44.4-44.4v70.6z" fill="#5f2f00"/><path d="m664.45 367.2c-2.45-5.25-6.2-9.45-11.1-12.55q-7.4-4.75-16.05-4.75h-114.85v67.65c31.2-.1 80-13.75 146.45-40.85z" fill="#ccc"/><path d="m380.15 367.2-4.1 8.75c64.75 27.85 113.55 41.75 146.4 41.6v-67.65h-115.15c-5.75 0-11.1 1.6-16 4.75-4.9 3.1-8.65 7.3-11.15 12.55z" fill="#d9d9d9"/><path d="m522.3 103.9q-2.8 0-5.55.25c-15.15 1.15-28.25 7.25-39.35 18.3-12.35 12.4-18.55 27.35-18.55 44.9s6.2 32.5 18.55 44.85c11.1 11.05 24.2 17.2 39.35 18.4 1.85.15 3.7.2 5.55.2z" fill="#ccc"/><path d="m585.75 167.35c0-17.55-6.2-32.5-18.6-44.9-12.35-12.35-27.3-18.55-44.85-18.55v126.9c17.55 0 32.5-6.2 44.85-18.6 12.4-12.35 18.6-27.3 18.6-44.85z" fill="#999"/><path d="m508.25 127.45q-5.35-5.3-12.9-5.3c-5.05 0-9.4 1.75-12.95 5.3s-5.3 7.9-5.3 12.95 1.75 9.3 5.3 12.85 7.9 5.35 12.95 5.35 9.35-1.8 12.9-5.35 5.35-7.8 5.35-12.85-1.8-9.4-5.35-12.95z" fill="#fff"/></svg>