<svg enable-background="new 0 0 1024 1024" height="1024" image-rendering="optimizeSpeed" viewBox="0 0 1024 1024" width="1024" xmlns="http://www.w3.org/2000/svg"><path d="m969.65 351.3q-8.6-20.85-19.4-40.85c-4.05-7.55-8.35-15.05-12.9-22.4-19.55-31.7-43.4-61.65-71.55-89.8-92.15-92.15-203.45-138.25-333.8-138.25s-241.6 46.1-333.75 138.25-138.25 203.4-138.25 333.75 46.1 241.65 138.25 333.8 203.4 138.2 333.75 138.2 241.65-46.05 333.8-138.2c50.75-50.8 87.55-107.4 110.35-169.75 18.55-50.85 27.85-105.5 27.85-164.05 0-44.9-5.45-87.55-16.4-127.95-1.25-4.55-2.55-9.1-3.9-13.6-4.1-13.3-8.8-26.35-14.05-39.15z" fill-opacity=".098039"/><path d="m820.5 223.65c-3.25-3.45-6.55-6.85-9.9-10.2-82.45-82.45-181.95-123.65-298.55-123.65s-216.15 41.2-298.6 123.65-123.65 182-123.65 298.6 41.2 216.1 123.65 298.55c3.35 3.35 6.75 6.65 10.2 9.9l-.025-.025 596.85-596.85m122.775 92.875c-2.7-5.95-5.65-12-8.75-18.05-3.8-7.4-7.95-14.95-12.3-22.4-17.95-30.55-40.05-59.7-66.5-87.65l-35.225 35.225.025.025c75.85 80.45 113.8 176.55 113.8 288.4 0 116.6-41.25 216.1-123.7 298.55s-181.95 123.7-298.55 123.7c-111.85 0-207.95-37.95-288.4-113.8l-.025-.025-35.225 35.225c37.8 35.8 78.35 63.95 121.35 84.4 3.95 1.85 7.75 3.6 11.55 5.3 5.55 2.45 10.8 4.65 16.1 6.75 6.45 2.6 12.6 4.85 18.8 6.95 28.6 9.8 58.2 16.7 88.4 20.65 1.9.25 3.55.45 5.2.65 11.5 1.4 22.85 2.35 34.35 2.95h.4c8.5.45 16.6.7 24.5.7h3c9.75 0 19.35-.25 28.8-.7.45-.05.85-.05 1.3-.1 2.5-.15 4.75-.3 6.95-.45 10.3-.75 20.45-1.75 30.35-3.05 7.8-1.05 15.45-2.25 22.95-3.6 1.9-.35 3.65-.7 5.4-1.05 7.95-1.55 15.8-3.3 23.4-5.15 28.9-7.25 56.6-17.2 83.1-29.75 7-3.4 13.85-6.9 20.65-10.55 25.2-13.7 49.35-30 72.4-48.85 13.25-10.9 26.05-22.5 38.5-34.95l3.3-3.3c.65-.65 1.25-1.3 1.9-1.95 22.6-23.25 42.2-47.5 58.9-72.9 17.55-26.55 31.95-54.45 43.25-83.65 3.95-10.25 7.55-20.65 10.75-31.15 11.7-38.65 18.3-79.4 19.8-122.35.2-6.05.3-12.25.3-18.5 0-.65 0-1.35 0-2 0-.35 0-.65 0-1-.2-40.65-4.95-79.5-14.3-117-1.1-4.35-2.35-9-3.65-13.6-2.25-7.85-4.75-15.8-7.55-23.8-.3-.75-.6-1.65-.9-2.55-4.25-12-9-23.8-14.4-35.6z" fill="#e4a769"/><path d="m934.3 512.05c0-111.85-37.95-207.95-113.8-288.4l-.025-.025-596.85 596.85.025.025c80.45 75.85 176.55 113.8 288.4 113.8 116.6 0 216.1-41.25 298.55-123.7s123.7-181.95 123.7-298.55zm-85.15-330.4c-1.1-1.15-2.2-2.25-3.3-3.35-34.35-34.35-71.3-62.25-110.9-83.75-6.7-3.65-13.45-7.1-20.65-10.55-35.05-16.75-72.5-28.85-111.9-36-3.1-.55-6.2-1.1-9.35-1.6-.3-.05-.6-.1-.85-.15-4.2-.65-8.4-1.25-12.75-1.85-4.05-.5-8.2-1-12.4-1.45-3.6-.4-7.2-.75-11-1.05-4.45-.4-9.15-.75-13.9-1-.45-.05-.85-.05-1.3-.05-9.5-.55-19.1-.8-28.8-.8-9.35 0-18.6.25-27.9.75-1.7.1-3.4.2-5.1.3-3.65.2-7.3.45-11 .8-6.1.5-12.2 1.1-18.25 1.85-1.8.2-3.55.4-5.2.65-43.6 5.75-84.7 17.2-123.3 34.35-3.85 1.7-7.7 3.45-11.55 5.3-47.5 22.65-91.25 54.05-131.45 94.25-.55.55-1.05 1.05-1.55 1.55-.65.65-1.25 1.25-1.85 1.9-40.45 41.15-71.75 86.05-94 134.75-7.85 17.15-14.5 34.6-20.05 52.5q-20.8 67.2-20.8 143.05c0 128.75 44.95 238.9 134.85 330.4.6.6 1.2 1.2 1.85 1.85l1.55 1.55c3.45 3.45 6.9 6.8 10.1 9.85l35.225-35.225.025.025c-3.45-3.25-6.85-6.55-10.2-9.9-82.45-82.45-123.65-181.95-123.65-298.55s41.2-216.15 123.65-298.6 182-123.65 298.6-123.65 216.1 41.2 298.55 123.65c3.35 3.35 6.65 6.75 9.9 10.2l-.025-.025 35.225-35.225c-1.45-1.5-3.05-3.15-4.65-4.8-.65-.65-1.25-1.3-1.9-1.95z" fill="#fdf08b"/><path d="m777.85 246.1q-40.1-40.1-86.3-65.6c-53.7-29.65-113.55-44.5-179.55-44.5-103.85 0-192.45 36.7-265.9 110.1-73.4 73.45-110.1 162.05-110.1 265.9 0 83.85 23.95 157.75 71.8 221.8 11.4 15.25 24.15 29.9 38.3 44.05 73.45 73.45 162.05 110.15 265.9 110.15s192.45-36.7 265.85-110.15c73.45-73.4 110.15-162 110.15-265.85s-36.7-192.45-110.15-265.9z" fill="#527999"/><path d="m888.05 512.05q0-39.612-7.125-76.275l-147.825-147.825-114.05 108.7-107-107-28 94.4-96-96-7 443.85 155.45 155.45c93.35-5.35 173.85-41.85 241.4-109.45 73.45-73.4 110.15-162 110.15-265.85z" fill-opacity=".2"/><path d="m677.3 321.8 1-.6 54.8-32.5h-97.55zm-331.3 0 .25-.2 42.3-32.9h-97.55zm72.45 381.75-.05.5.1-.3z" fill="#fff"/><path d="m678.3 321.2-1 .6-41.75-33.1-47.25 266.85 9.8 146.45-85.8-320.2-1.25 4.3v146.55l1-4.4 47.15 207.9 39.05-32.05.25-.2.1-.1zm-332.05.4-.25.2-55-33.1 91.5 447.45 36-32.05.05-.05-.05-.3-.1.3.05-.5zm164.8 64.5v-94.65l-75 263.6-17.6 148.5.05.2z" fill="#fdf08b"/><path d="m733.1 288.7-54.8 32.5-79.7 382.6-.1.1 43.1 32.25zm-344.55 0-42.3 32.9 72.2 381.95 17.6-148.5zm123.5-.75-1 3.5v94.65l1.25-4.3 85.8 320.2-9.8-146.45zm-93.55 415.8.05.3-.05.05 46.4 32.05 46.15-203.5v-146.55z" fill="#e4a769"/><path d="m464.9 736.15-46.4-32.05-36 32.05zm133.6-32.25-.25.2-39.05 32.05h82.4z" fill="#b97d3e"/></svg>