<svg width="2800" height="2800" viewBox="0 0 2800 2800" fill="none" xmlns="http://www.w3.org/2000/svg">
<g clip-path="url(#clip0_303_31)">
<rect x="1028" y="707" width="1087" height="1345" fill="white"/>
<path fill-rule="evenodd" clip-rule="evenodd" d="M669.258 404.238C526.611 404.238 421.06 529.092 425.786 664.492C430.322 794.575 424.429 963.052 382.017 1100.44C339.453 1238.22 267.52 1325.53 150 1336.74V1463.26C267.52 1474.49 339.453 1561.76 382.012 1699.56C424.429 1836.95 430.317 2005.42 425.781 2135.51C421.055 2270.89 526.606 2395.76 669.277 2395.76H2130.93C2273.58 2395.76 2379.11 2270.91 2374.38 2135.51C2369.85 2005.42 2375.74 1836.95 2418.15 1699.56C2460.72 1561.76 2532.48 1474.46 2650 1463.26V1336.74C2532.48 1325.51 2460.72 1238.24 2418.15 1100.44C2375.74 963.071 2369.85 794.575 2374.38 664.492C2379.11 529.111 2273.58 404.238 2130.93 404.238H669.238H669.258ZM1844.92 1630.15C1844.92 1816.59 1705.85 1929.66 1475.06 1929.66H1082.2C1070.96 1929.66 1060.19 1925.2 1052.24 1917.25C1044.29 1909.31 1039.83 1898.53 1039.83 1887.29V912.715C1039.83 901.477 1044.29 890.699 1052.24 882.753C1060.19 874.806 1070.96 870.342 1082.2 870.342H1472.83C1665.26 870.342 1791.56 974.58 1791.56 1134.62C1791.56 1246.95 1706.6 1347.51 1598.36 1365.13V1370.99C1745.7 1387.15 1844.92 1489.2 1844.92 1630.15ZM1432.23 1004.66H1208.22V1321.07H1396.89C1542.74 1321.07 1623.16 1262.34 1623.16 1157.36C1623.14 1058.98 1554 1004.66 1432.23 1004.66ZM1208.22 1446.61V1795.3H1440.47C1592.32 1795.3 1672.76 1734.37 1672.76 1619.85C1672.76 1505.34 1590.07 1446.59 1430.7 1446.59H1208.22V1446.61Z" fill="#7952B3"/>
</g>
<defs>
<clipPath id="clip0_303_31">
<rect width="2500" height="1992" fill="white" transform="translate(150 404)"/>
</clipPath>
</defs>
</svg>
