<svg width="1497" height="432" viewBox="0 0 1497 432" fill="none" xmlns="http://www.w3.org/2000/svg">
<g clip-path="url(#clip0_302_15)">
<path d="M1497 97.3494H1441.7V339.131H1497V97.3494ZM1407.05 177.949H1351.75V268.537C1351.75 275.6 1349.51 281.093 1345 285.621C1340.49 290.149 1335.04 292.063 1328.6 292.063C1321.56 292.063 1316.08 290.133 1311.56 285.621C1307.05 281.109 1305.13 275.623 1305.13 268.537V177.949H1249.83V264.017C1249.83 287.873 1257.23 306.895 1272.02 321.404C1286.81 335.914 1305.46 343 1328.6 343C1351.43 343 1370.08 335.937 1384.87 321.404C1399.66 306.871 1407.05 287.873 1407.05 264.017V177.949ZM1173.83 177.949L1141.35 250.481L1108.56 177.949H1050.06L1132.39 343H1150.08L1232.41 177.949H1173.83ZM1031.38 97.3494H976.083V339.131H1031.38V97.3494ZM940.012 177.949H884.711V339.131H940.012V177.949ZM912.04 88.0034C902.399 88.0034 894.358 91.2259 887.92 97.6712C884.818 100.676 882.362 104.285 880.704 108.277C879.045 112.269 878.22 116.559 878.278 120.883C878.278 130.237 881.492 137.975 887.92 144.096C894.361 150.546 902.399 153.449 912.04 153.449C921.362 153.449 929.399 150.546 936.153 144.096C942.579 137.653 946.116 129.916 946.116 120.883C946.116 111.851 942.579 104.122 936.153 97.6712C932.969 94.5446 929.199 92.0808 925.06 90.4215C920.922 88.7623 916.497 87.9405 912.04 88.0034ZM866.789 339.116L807.638 249.845L862.938 177.956H798.951L748.8 243.089V97.3494H693.499V339.131H748.8V254.028L806.026 339.131L866.789 339.116ZM586.608 122.484C564.749 122.484 546.741 128.283 532.92 139.889C519.099 151.496 512.337 166.649 512.337 185.349C512.337 212.422 530.024 234.002 566.033 249.492L587.892 259.168C596.25 263.036 601.713 265.94 604.929 268.192C606.419 269.531 607.596 271.183 608.375 273.031C609.154 274.878 609.517 276.876 609.437 278.88C609.437 289.199 602.034 294.355 587.571 294.355C569.57 294.355 553.816 285.323 540.308 266.952L503 295.289C510.588 309.976 522.334 322.089 536.763 330.107C551.554 338.81 568.279 343 587.563 343C610.071 343 628.393 337.201 643.184 325.273C657.976 313.345 665.364 297.219 665.364 276.62C665.364 261.789 660.864 249.225 651.864 239.228C642.863 229.23 629.355 220.206 611.034 212.469L586.6 202.157C579.525 199.573 574.702 196.994 572.13 194.42C570.856 193.154 569.856 191.639 569.189 189.969C568.523 188.299 568.205 186.511 568.256 184.713C568.256 175.689 574.36 171.176 587.211 171.176C594.042 171.07 600.754 172.98 606.51 176.67C612.697 181.419 618.025 187.198 622.265 193.753L659.236 165.385C644.773 137.002 620.652 122.5 586.577 122.5L586.608 122.484Z" fill="white"/>
<path fill-rule="evenodd" clip-rule="evenodd" d="M320.73 79.42C321.6 78.77 322.39 78.09 323.26 77.55C332.82 71.78 342.43 66.12 351.91 60.23C352.798 59.544 353.888 59.1719 355.01 59.1719C356.132 59.1719 357.222 59.544 358.11 60.23C363.27 63.51 368.58 66.51 373.87 69.6C375.43 70.49 376.44 71.48 376.43 73.55C376.35 85.83 376.36 98.11 376.33 110.39C376.275 110.842 376.164 111.285 376 111.71C372.83 111 325.2 83.23 320.73 79.42Z" fill="#A41923"/>
<path fill-rule="evenodd" clip-rule="evenodd" d="M283.18 189.561C283.98 195.341 287.74 205.981 289.94 208.841L301.31 200.241C294.88 196.461 289.22 193.141 283.18 189.561ZM267.18 180.061L249.39 169.561C249.14 169.821 248.88 170.071 248.61 170.321C250.66 176.381 252.71 182.441 255.01 189.221C259.13 186.161 262.85 183.351 267.17 180.081L267.18 180.061ZM303.39 124.211C303.39 118.341 303.32 113.691 303.39 109.051C303.45 106.931 302.14 106.051 300.66 105.191C295.653 102.264 290.653 99.3239 285.66 96.3705L273.04 88.9705C268.28 91.8205 263.77 94.5605 258.51 97.7405C273.71 106.711 288.08 115.191 303.38 124.231L303.39 124.211ZM320.74 78.9605C325.21 82.7705 372.84 110.571 376.01 111.271C376.17 110.845 376.281 110.402 376.34 109.951C376.34 97.6706 376.34 85.3805 376.44 73.1005C376.44 71.0406 375.44 70.0405 373.88 69.1505C368.59 66.0605 363.27 63.0605 358.12 59.7805C357.232 59.0945 356.142 58.7224 355.02 58.7224C353.898 58.7224 352.808 59.0945 351.92 59.7805C342.44 65.6805 332.83 71.3306 323.27 77.1005C322.39 77.6506 321.6 78.3306 320.73 78.9806L320.74 78.9605ZM204.42 24.0305C204.226 24.9112 204.085 25.8028 204 26.7006C204 38.7006 204 50.6305 203.93 62.6005C203.93 64.9605 204.93 66.1705 206.83 67.3005C217.67 73.5705 228.43 80.0105 239.21 86.3705C241.96 87.9905 244.72 89.5705 247.56 91.2105C254.78 86.8705 261.88 82.6705 268.9 78.3505C270.086 77.5138 271.497 77.053 272.948 77.028C274.4 77.0031 275.826 77.4151 277.04 78.2105C288.187 84.8372 299.367 91.4305 310.58 97.9905C311.88 98.6781 312.948 99.7357 313.647 101.03C314.347 102.324 314.647 103.796 314.51 105.261C314.4 110.081 314.46 114.891 314.51 119.711C314.51 120.871 314.74 122.021 314.94 123.801C324.74 117.971 334.05 112.451 343.87 106.331L204.42 24.0305ZM20.53 167.201L192.38 65.7705C193.19 58.8705 192.92 28.0305 191.99 24.4805C190.75 25.1205 189.54 25.6605 188.39 26.3505C133.53 58.7105 78.6566 91.0705 23.77 123.431C21.22 124.931 20.07 126.431 20.13 129.601C20.32 140.601 20.2 151.671 20.22 162.711C20.21 163.871 20.38 165.071 20.53 167.201ZM20.2 298.751C22.4 297.601 23.74 296.961 25.02 296.231C30.16 293.231 35.27 290.171 40.4 287.131C89.88 257.937 139.36 228.764 188.84 199.611C191.67 197.941 192.9 196.201 192.84 192.751C192.65 178.461 192.78 164.151 192.76 149.851C192.76 148.381 192.59 146.901 192.48 144.851C190.48 145.901 189.06 146.641 187.65 147.461L151 169.141C108.867 193.967 66.7333 218.774 24.6 243.561C21.24 245.561 20.05 247.691 20.12 251.561C20.36 265.231 20.21 278.921 20.21 292.561C20.2 294.311 20.2 296.011 20.2 298.751ZM20.2 232.861C22.2 231.861 23.44 231.301 24.57 230.631C79.5633 198.191 134.563 165.764 189.57 133.351C192.04 131.901 192.83 130.231 192.81 127.441C192.7 112.681 192.76 97.9005 192.75 83.1505C192.75 81.9705 192.54 80.8105 192.4 79.1505C190.81 79.9505 189.58 80.4805 188.4 81.1505C183.78 83.8405 179.17 86.5905 174.56 89.3005C124.46 118.874 74.33 148.424 24.17 177.951C21.1 179.741 20 181.68 20.06 185.281C20.26 199.421 20.14 213.571 20.14 227.701L20.2 232.861ZM204 78.8905V84.4806C204 98.4806 204.15 112.481 203.89 126.481C203.83 130.321 205.23 132.251 208.33 134.081C241.663 153.621 274.98 173.241 308.28 192.941C309.633 193.649 310.927 194.465 312.15 195.381C315.75 198.381 314.96 203.111 310.74 205.121C308.151 206.343 305.666 207.774 303.31 209.401C299.17 212.301 295.22 215.481 291.12 218.401C286.6 221.691 284.53 221.041 282.67 215.711C279.73 207.221 276.89 198.711 273.97 190.191C273.59 189.111 272.97 188.111 272.42 186.841C270.7 188.041 269.32 188.991 267.98 189.991C264.06 192.931 260.21 195.991 256.21 198.801C252.76 201.271 250.34 200.421 248.76 196.421C248.48 195.721 248.29 194.951 248.05 194.211C245.05 185.401 242.05 176.6 239.15 167.781C238.593 165.699 237.234 163.923 235.37 162.841C225.97 157.421 216.66 151.841 207.3 146.371C206.334 145.898 205.331 145.507 204.3 145.201C204.2 146.831 204.06 148.071 204.06 149.271C204.06 163.891 204.14 178.521 203.97 193.131C203.852 194.409 204.13 195.693 204.767 196.807C205.404 197.922 206.369 198.813 207.53 199.361C262.337 231.601 317.107 263.884 371.84 296.211C373.1 296.971 374.45 297.581 376.06 298.421C376.246 297.358 376.376 296.287 376.45 295.211C376.45 239.697 376.473 184.181 376.52 128.661C376.608 127.675 376.393 126.686 375.904 125.826C375.414 124.966 374.673 124.277 373.78 123.851C368.72 121.001 363.66 118.151 358.78 114.991C356.12 113.261 354.1 113.281 351.37 114.991C339.29 122.471 326.95 129.551 314.92 137.141C310.74 139.761 307.48 139.791 303.21 137.241C271.97 118.581 240.61 100.161 209.28 81.6905C207.78 80.8605 206.31 80.1405 204 78.8905ZM395.86 188.181C395.86 227.371 395.76 266.541 395.94 305.721C395.94 313.611 393.04 318.721 386.34 322.721C326.64 357.767 267.013 392.934 207.46 428.221C202.73 431.031 198.04 432.561 192.78 430.121C191.545 429.518 190.344 428.851 189.18 428.121C129.02 392.614 68.8666 357.114 8.71997 321.621C3.47997 318.531 0.929971 314.211 0.939971 307.951C0.993304 246.551 0.993304 185.137 0.939971 123.711C0.939971 117.101 3.54996 112.511 9.08996 109.251C69.37 73.7105 129.64 38.1472 189.9 2.56054C195.78 -0.919465 201.19 -0.819458 207.04 2.66054C239.35 21.8605 271.8 40.8405 304.04 60.0905C307.5 62.1505 310.04 62.3605 313.47 60.0905C324.18 53.2705 335.23 47.0305 345.99 40.3205C351.99 36.6105 357.56 36.4705 363.55 40.1505C371.477 45.0305 379.5 49.7672 387.62 54.3605C393.26 57.5505 395.87 62.1805 395.86 68.7505C395.813 108.571 395.813 148.381 395.86 188.181Z" fill="#0F1029"/>
<path fill-rule="evenodd" clip-rule="evenodd" d="M204 78.8906C206.33 80.1406 207.8 80.8907 209.22 81.7007C240.54 100.171 271.91 118.591 303.14 137.241C307.42 139.791 310.67 139.771 314.85 137.141C326.85 129.561 339.22 122.501 351.31 115.001C354.03 113.301 356.06 113.281 358.72 115.001C363.59 118.151 368.67 121.001 373.72 123.861C374.605 124.292 375.34 124.982 375.827 125.838C376.314 126.695 376.531 127.679 376.45 128.661C376.39 184.187 376.37 239.704 376.39 295.211C376.312 296.287 376.178 297.358 375.99 298.421C374.37 297.581 372.99 296.971 371.78 296.221C317.013 263.921 262.243 231.637 207.47 199.371C204.91 197.871 203.87 196.231 203.91 193.141C204.08 178.531 203.98 163.901 204 149.281C204 148.071 204.13 146.841 204.24 145.211C205.27 145.516 206.273 145.903 207.24 146.371C216.6 151.841 225.9 157.451 235.3 162.841C237.175 163.941 238.537 165.738 239.09 167.841C242 176.671 245.02 185.451 247.98 194.271C248.23 195.011 248.42 195.771 248.69 196.481C250.28 200.481 252.69 201.321 256.15 198.861C260.15 196.011 264 192.991 267.92 190.051C269.26 189.051 270.63 188.111 272.35 186.891C272.925 187.983 273.442 189.104 273.9 190.251C276.82 198.751 279.66 207.251 282.61 215.761C284.47 221.101 286.56 221.761 291.06 218.461C295.15 215.461 299.11 212.301 303.24 209.411C305.594 207.781 308.079 206.35 310.67 205.131C314.9 203.131 315.67 198.371 312.09 195.381C310.853 194.484 309.557 193.672 308.21 192.951C274.876 173.297 241.543 153.674 208.21 134.081C205.12 132.261 203.71 130.321 203.78 126.491C204.03 112.491 203.88 98.4906 203.88 84.4906C204 82.9506 204 81.4106 204 78.8906Z" fill="#FF3034"/>
<path fill-rule="evenodd" clip-rule="evenodd" d="M20.2001 232.86V227.7C20.2001 213.58 20.3301 199.42 20.1201 185.29C20.0601 181.7 21.1201 179.76 24.2301 177.96C74.4101 148.467 124.54 118.917 174.62 89.3102C179.23 86.6002 183.84 83.8502 188.46 81.1602C189.59 80.5002 190.83 79.9702 192.46 79.1602C192.62 80.7902 192.81 81.9502 192.81 83.1602C192.81 97.9202 192.81 112.69 192.87 127.45C192.87 130.24 192.1 131.91 189.63 133.35C134.59 165.73 79.5901 198.16 24.6301 230.64C23.4401 231.3 22.2201 231.82 20.2001 232.86Z" fill="#FF3034"/>
<path fill-rule="evenodd" clip-rule="evenodd" d="M20.1998 298.751V292.641C20.1998 278.971 20.3499 265.281 20.1099 251.641C20.0399 247.721 21.2198 245.641 24.5898 243.641C66.7565 218.921 108.893 194.091 151 169.151C163.22 161.918 175.45 154.694 187.69 147.481C189.11 146.661 190.55 145.941 192.52 144.881C192.64 146.881 192.8 148.381 192.8 149.881C192.8 164.171 192.69 178.481 192.89 192.771C192.94 196.211 191.71 197.961 188.89 199.621C139.383 228.728 89.8999 257.907 40.4399 287.161C35.3199 290.201 30.1965 293.231 25.0699 296.251C23.7299 296.961 22.3998 297.561 20.1998 298.751Z" fill="#FF3034"/>
<path fill-rule="evenodd" clip-rule="evenodd" d="M20.5299 167.201C20.3799 165.061 20.2199 163.871 20.2199 162.701C20.2199 151.701 20.3199 140.611 20.1299 129.591C20.1299 126.461 21.2399 124.921 23.7699 123.421C78.6632 91.1007 133.537 58.7407 188.39 26.3407C189.54 25.6607 190.76 25.1007 191.99 24.4707C192.92 28.0307 193.19 58.8707 192.38 65.7707C135.48 99.3607 78.3899 133.061 20.5299 167.201Z" fill="#A41923"/>
<path fill-rule="evenodd" clip-rule="evenodd" d="M204.42 24.0303L343.88 106.33C334.06 112.45 324.75 117.97 314.94 123.8C314.74 122.01 314.53 120.86 314.51 119.71C314.51 114.89 314.41 110.08 314.51 105.25C314.645 103.787 314.343 102.317 313.644 101.025C312.945 99.7332 311.878 98.6772 310.58 97.9903C299.38 91.4436 288.2 84.8503 277.04 78.2103C275.828 77.4082 274.401 76.9922 272.948 77.0172C271.495 77.0422 270.083 77.507 268.9 78.3503C261.9 82.6703 254.79 86.8703 247.56 91.2103C244.72 89.5703 241.95 87.9903 239.21 86.3703C228.43 80.0103 217.67 73.5703 206.83 67.3003C204.92 66.1703 203.92 64.9603 203.93 62.6003C204.03 50.6003 203.98 38.6603 204 26.7003C204.085 25.8025 204.225 24.9107 204.42 24.0303Z" fill="#A41923"/>
<path fill-rule="evenodd" clip-rule="evenodd" d="M303.38 124.23L258.53 97.7603C263.79 94.5803 268.3 91.8402 273.06 88.9902L285.68 96.3902C290.68 99.3402 295.68 102.28 300.68 105.21C302.16 106.08 303.47 106.95 303.41 109.07C303.31 113.71 303.38 118.36 303.38 124.23Z" fill="white"/>
<path fill-rule="evenodd" clip-rule="evenodd" d="M267.17 180.081C262.86 183.351 259.17 186.161 255.02 189.261C252.72 182.471 250.68 176.421 248.63 170.361L249.4 169.601L267.17 180.081Z" fill="white"/>
<path fill-rule="evenodd" clip-rule="evenodd" d="M283.18 189.561C289.18 193.121 294.88 196.441 301.31 200.221C297.08 203.411 293.51 206.131 289.94 208.831C287.75 206.001 284 195.371 283.18 189.561Z" fill="white"/>
<path d="M27.96 311.131L197.62 206.511L370.86 311.131L197.62 407.741L27.96 311.131Z" fill="#D41718"/>
</g>
<defs>
<clipPath id="clip0_302_15">
<rect width="1497" height="432" fill="white"/>
</clipPath>
</defs>
</svg>
