<svg enable-background="new 0 0 1024 1024" height="1024" image-rendering="optimizeSpeed" viewBox="0 0 1024 1024" width="1024" xmlns="http://www.w3.org/2000/svg"><path d="m964.65 346.3q-8.6-20.85-19.4-40.85c-4.05-7.55-8.35-15.05-12.9-22.4-19.55-31.7-43.4-61.65-71.55-89.8-92.15-92.15-203.45-138.25-333.8-138.25s-241.6 46.1-333.75 138.25-138.25 203.4-138.25 333.75 46.1 241.65 138.25 333.8 203.4 138.2 333.75 138.2 241.65-46.05 333.8-138.2c50.75-50.8 87.55-107.4 110.35-169.75 18.55-50.85 27.85-105.5 27.85-164.05 0-44.9-5.45-87.55-16.4-127.95-1.25-4.55-2.55-9.1-3.9-13.6-4.1-13.3-8.8-26.35-14.05-39.15z" fill-opacity=".098039"/><path d="m966.1 378.45c-.55-1.9-1.1-3.85-1.8-6.05-1.95-6.6-4.25-13.45-6.65-20.3-6.45-18.25-14.15-36.05-23.15-53.65-3.8-7.4-7.95-14.95-12.3-22.4h-.025q-30.601-52.01-76.325-97.75c-57.25-57.25-121.9-96.7-194.15-118.5-43.6-13.15-90.25-19.75-139.65-19.75-2.6 0-5.2 0-8.05.05-30.45 1.2-58.8 7.75-85.05 19.5-25.55 11.45-49.1 27.9-70.55 49.35-46.05 46.1-69.1 101.75-69.1 166.9s23.05 120.8 69.1 166.85c45.4 45.4 100.05 68.45 163.65 69.15h6.3c63.9.8 118.5 23.8 163.8 69.1 46.1 46.1 69.15 101.75 69.15 166.9 0 34.85-6.6 66.95-19.75 96.35-11.45 25.55-27.95 49.05-49.4 70.5-46.05 46.1-101.7 69.15-166.85 69.15-1 0-2 0-3.25 0v.2c130.35 0 241.65-46.05 333.8-138.2 48.6-48.6 84.4-102.5 107.35-161.8 17-43.95 27-90.8 29.95-140.75.6-10.2.9-20.65.9-31.25 0-41.75-4.7-81.6-14.3-120-1.1-4.35-2.35-9-3.65-13.6z" fill="#ccc"/><g fill="#333"><path d="m751.3 747.85c0-65.15-23.05-120.8-69.15-166.9-45.3-45.3-99.9-68.3-163.8-69.1h-6.3c-63.6-.7-118.25-23.75-163.65-69.15-46.05-46.05-69.1-101.7-69.1-166.85s23.05-120.8 69.1-166.9c21.45-21.45 45-37.9 70.55-49.35 26.25-11.75 54.6-18.3 85.05-19.5-126.75 1.8-235.4 47.9-325.7 138.2-92.15 92.15-138.25 203.4-138.25 333.75s46.1 241.65 138.25 333.8c68.05 68.05 146.5 110.95 234.9 128.65 31.95 6.4 64.75 9.55 98.85 9.55v-.2h3.25c65.15 0 120.8-23.05 166.85-69.15 21.45-21.45 37.95-44.95 49.4-70.5 13.15-29.4 19.75-61.5 19.75-96.35z"/><path d="m585.6 186.15q-24.25 0-41.4 17.1c-11.4 11.45-17.1 25.25-17.1 41.4s5.7 29.95 17.1 41.35c8.15 8.15 17.5 13.4 28.05 15.75l-19.4 26.2 27.75 21.15 51.55-68.7.6-1c2.8-3.7 5.1-7.6 6.85-11.7l1.8-3.15.65-4c1.05-3.75 1.7-7.6 1.95-11.6v-.3c.05-1.3.1-2.65.1-4 0-16.15-5.7-29.95-17.15-41.4-11.4-11.4-25.2-17.1-41.35-17.1z"/><path d="m401.7 203.25q-17.1 17.15-17.1 41.4c0 16.15 5.7 29.95 17.1 41.35 8.15 8.15 17.5 13.4 28.05 15.75l-19.4 26.2 27.75 21.15 51.55-68.7.6-1c2.8-3.7 5.1-7.6 6.85-11.7l1.8-3.15.65-4c1.05-3.75 1.7-7.6 1.95-11.6v-.3c.05-1.3.1-2.65.1-4 0-16.15-5.7-29.95-17.15-41.4-11.4-11.4-25.2-17.1-41.35-17.1s-29.95 5.7-41.4 17.1z"/></g><path d="m537.6 706.2c-2.8 3.7-5.1 7.6-6.85 11.7l-1.8 3.15-.65 4c-1.05 3.75-1.7 7.6-1.95 11.6v.3c-.05 1.3-.1 2.65-.1 4 0 16.15 5.7 29.95 17.15 41.4 11.4 11.4 25.2 17.1 41.35 17.1s29.95-5.7 41.4-17.1c11.4-11.45 17.1-25.25 17.1-41.4s-5.7-29.95-17.1-41.35c-8.15-8.15-17.5-13.4-28.05-15.75l19.4-26.2-27.75-21.15-51.55 68.7zm-141.9-1-.6 1c-2.8 3.7-5.1 7.6-6.85 11.7l-1.8 3.15-.65 4c-1.05 3.75-1.7 7.6-1.95 11.6v.3c-.05 1.3-.1 2.65-.1 4 0 16.15 5.7 29.95 17.15 41.4 11.4 11.4 25.2 17.1 41.35 17.1s29.95-5.7 41.4-17.1c11.4-11.45 17.1-25.25 17.1-41.4s-5.7-29.95-17.1-41.35c-8.15-8.15-17.5-13.4-28.05-15.75l19.4-26.2-27.75-21.15z" fill="#ccc"/></svg>